<?xml version="1.0" encoding="iso-8859-1"?>
<!-- Generator: Adobe Illustrator 18.1.1, SVG Export Plug-In . SVG Version: 6.00 Build 0)  -->
<svg version="1.1" xmlns="http://www.w3.org/2000/svg" xmlns:xlink="http://www.w3.org/1999/xlink" x="0px" y="0px"
	 viewBox="0 0 660 260" style="enable-background:new 0 0 660 260;" xml:space="preserve">
<g id="bitso.logo.grayscale">
	<g>
		<g>
			<path style="fill:#999999;" d="M244.224,67.002c0-0.869,0.621-1.49,1.49-1.49h40.592c22.716,0,33.268,11.172,33.268,27.682
				c0,11.296-5.214,18.372-12.041,22.22v0.248c6.951,2.607,13.903,11.172,13.903,23.585c0,20.482-13.655,30.289-36.123,30.289
				h-39.474c-0.869,0-1.49-0.621-1.49-1.49L244.224,67.002L244.224,67.002z M283.574,108.091c8.565,0,13.655-4.593,13.655-12.289
				s-5.089-12.041-13.655-12.041h-15.889c-0.621,0-0.869,0.248-0.869,0.869v22.468c0,0.621,0.248,0.869,0.869,0.869
				C267.685,108.091,283.574,108.091,283.574,108.091z M267.685,151.413h17.13c9.186,0,14.151-4.841,14.151-13.034
				c0-7.945-4.841-13.034-14.151-13.034h-17.13c-0.621,0-0.869,0.248-0.869,0.869v24.206
				C266.816,151.165,267.064,151.413,267.685,151.413"/>
		</g>
		<g>
			<path style="fill:#999999;" d="M331.49,67.002c0-0.869,0.621-1.49,1.49-1.49h19.489c0.869,0,1.49,0.621,1.49,1.49v101.044
				c0,0.869-0.621,1.49-1.49,1.49h-19.489c-0.869,0-1.49-0.621-1.49-1.49V67.002z"/>
		</g>
		<g>
			<path style="fill:#999999;" d="M393.556,169.661c-0.869,0-1.49-0.621-1.49-1.49v-81.68c0-0.621-0.248-0.869-0.869-0.869h-26.316
				c-0.869,0-1.49-0.621-1.49-1.49V67.127c0-0.869,0.621-1.49,1.49-1.49h77.087c0.869,0,1.49,0.621,1.49,1.49v17.006
				c0,0.869-0.621,1.49-1.49,1.49h-26.316c-0.621,0-0.869,0.248-0.869,0.869v81.68c0,0.869-0.621,1.49-1.49,1.49H393.556z"/>
		</g>
		<g>
			<path style="fill:#999999;" d="M445.816,157.123c-0.621-0.621-0.869-1.738-0.124-2.607l11.669-13.282
				c0.621-0.745,1.49-0.745,2.359-0.124c6.951,5.462,16.261,10.675,27.309,10.675c10.924,0,17.006-5.089,17.006-12.413
				c0-6.083-3.724-9.931-16.137-11.669l-5.462-0.745c-21.103-2.855-32.895-12.91-32.895-31.282
				c0-19.117,14.399-31.902,36.868-31.902c13.779,0,26.689,4.096,35.378,10.924c0.869,0.621,1.117,1.241,0.248,2.359l-9.31,13.903
				c-0.621,0.745-1.365,0.869-2.11,0.497c-7.945-5.214-15.641-7.945-24.206-7.945c-9.186,0-13.903,4.717-13.903,11.296
				c0,5.958,4.345,9.807,16.261,11.544l5.462,0.745c21.475,2.855,32.771,12.662,32.771,31.53s-13.903,32.771-40.84,32.771
				C469.65,171.398,453.885,164.944,445.816,157.123"/>
		</g>
		<g>
			<path style="fill:#999999;" d="M537.799,146.075c-2.234-7.2-2.855-13.034-2.855-28.551s0.621-21.351,2.855-28.426
				c5.338-16.882,19.737-25.323,37.985-25.323c18.248,0,32.647,8.441,37.985,25.323c2.359,7.2,2.855,13.034,2.855,28.426
				c0,15.517-0.621,21.227-2.855,28.551c-5.338,16.882-19.737,25.323-37.985,25.323
				C557.536,171.398,543.137,162.957,537.799,146.075 M592.169,139.993c1.241-3.724,1.738-8.689,1.738-22.344
				s-0.497-18.744-1.738-22.344c-2.359-7.2-7.82-11.544-16.386-11.544s-14.151,4.345-16.386,11.544
				c-1.241,3.724-1.738,8.689-1.738,22.344s0.497,18.744,1.738,22.344c2.234,7.2,7.82,11.544,16.386,11.544
				C584.349,151.413,589.811,147.193,592.169,139.993"/>
		</g>
		<g>
			<path style="fill:#999999;" d="M653.739,156.875c0,8.317-6.703,15.02-15.02,15.02c-8.317,0-15.02-6.703-15.02-15.02
				c0-8.317,6.703-15.02,15.02-15.02C647.036,141.855,653.739,148.558,653.739,156.875"/>
		</g>
		<g>
			<path style="fill:#999999;" d="M109.664,28.894c-8.193,0-16.261,0.993-23.958,2.731c-0.993,0.248-1.49,0.497-2.11,1.241
				s-0.745,1.738-0.745,2.234v61.198c0,0,0,1.241,0.497,1.614c0.621,0.372,1.117,0.372,1.986-0.248
				c6.827-4.841,15.144-7.572,24.206-7.572c23.213,0,42.081,18.868,42.081,42.081c0,0.248,0,0.621,0,0.869v91.238
				c0,0-0.124,0.869,0.497,1.365c0.248,0.248,0.869,0.497,1.49,0.124c35.13-16.51,59.46-52.26,59.46-93.596
				C213.191,75.319,166.889,28.894,109.664,28.894"/>
		</g>
		<g>
			<path style="fill:#999999;" d="M136.104,166.309c-0.372-0.248-0.869-0.497-1.614,0.124c-6.951,5.089-15.517,8.069-24.827,8.069
				c-23.213,0-42.081-18.868-42.081-42.081c0-0.372,0-88.259,0-105.389c0-0.869-0.372-1.738-0.993-2.234
				c-0.621-0.497-1.614-0.621-2.234-0.621H9.364c-0.993,0-1.738,0.248-2.234,0.745s-0.869,1.117-0.869,2.11
				c0,15.144,0.124,86.024,0.124,105.389c0,57.101,46.302,103.403,103.403,103.403c8.441,0,16.634-0.993,24.578-2.979
				c0.621-0.248,1.241-0.745,1.614-1.241c0.372-0.497,0.745-1.614,0.745-2.234V167.55
				C136.601,167.674,136.601,166.806,136.104,166.309"/>
		</g>
	</g>
</g>
<g id="Layer_1">
</g>
</svg>
