<?xml version="1.0" encoding="iso-8859-1"?>
<!-- Generator: Adobe Illustrator 18.1.1, SVG Export Plug-In . SVG Version: 6.00 Build 0)  -->
<svg version="1.1" xmlns="http://www.w3.org/2000/svg" xmlns:xlink="http://www.w3.org/1999/xlink" x="0px" y="0px"
	 viewBox="0 0 660 260" style="enable-background:new 0 0 660 260;" xml:space="preserve">
<g id="bitstamp.logo.grayscale">
	<g>
		<g>
			<g>
				<g>
					<g>
						<path style="fill:#999999;" d="M6.261,79.268c15.038,0,30.982-2.88,45.54,1.92c8.212,2.4,15.518,9.705,15.518,18.397
							c0.96,9.225-5.812,16.958-11.145,23.73c6.292,3.413,12.105,7.252,15.038,14.025c6.292,14.025,0,32.955-14.505,38.768
							c-15.518,6.292-32.422,2.88-48.9,3.893c-0.48-26.609,0-53.272,0-80.415C8.66,92.813,7.221,86.04,6.261,79.268z M28.071,92.813
							c0,8.692,0,17.437,0,25.65c5.812,0,11.625,0.48,17.437,0.48c2.88-6.772,6.292-14.505,2.4-21.81
							C43.535,91.373,34.843,92.813,28.071,92.813z M28.071,133.02c-0.48,10.665,0,21.33,0,31.942c5.812,0,11.625,0.48,17.437-1.44
							c10.185-3.893,12.585-19.357,4.373-26.13C43.535,132.54,35.323,133.5,28.071,133.02z"/>
					</g>
				</g>
				<g>
					<path style="fill:#999999;" d="M92.915,79.268c7.252,0,14.025,0,21.33,0c0.48,27.143,0.48,54.232,0.48,81.375
						c0,6.292,0.96,12.585,1.44,18.877c-7.252,0-14.025,0-21.33,0c0-26.13,0-51.832,0-77.962
						C95.368,94.252,93.928,86.52,92.915,79.268z"/>
				</g>
				<g>
					<path style="fill:#999999;" d="M129.763,79.268c27.623,0,55.192,0,83.294,0c0,4.853,0,9.705,0,15.038
						c-11.145,0.48-21.81,0-32.422,0.48c0.96,28.582-1.44,56.685,1.92,85.214c-7.252,0-14.025,0-21.33,0
						c-0.48-28.582,0-56.685,0-85.214c-10.665,0-20.85,0-31.462,0C129.763,89.453,129.763,84.121,129.763,79.268z"/>
				</g>
			</g>
			<g>
				<g>
					<path style="fill:#999999;" d="M239.667,80.708c11.625-3.893,24.69-0.96,35.355,4.853c-0.96,3.413-1.92,6.772-2.88,10.185
						c-8.692-3.413-18.877-8.692-28.582-4.853c-8.692,3.413-10.665,15.518-4.373,21.81c9.225,9.705,23.25,12.585,32.422,22.77
						c11.625,12.105,7.252,35.355-8.212,42.607c-13.545,6.772-31.462,3.413-41.647-7.252c-0.48-4.373,0.48-8.212,0.96-12.585
						c8.692,6.292,18.397,14.025,29.542,12.105c10.185-1.44,15.998-15.038,9.705-23.25c-10.185-12.585-29.542-15.038-38.234-29.542
						C217.376,103.478,225.642,85.56,239.667,80.708z"/>
				</g>
				<g>
					<g>
						<path style="fill:#999999;" d="M394.151,84.6c0.96-5.333,6.772-4.373,10.665-5.333c9.225,25.65,18.877,51.353,28.103,77.002
							c2.88,8.212,6.772,15.518,10.185,23.73c-5.333,0.48-11.145,0-16.478,0c-2.88-8.692-6.292-16.958-8.692-25.17
							c-12.105-0.48-24.69,0-36.795,0c-3.413,8.692-6.772,16.958-9.705,25.65c-4.373,0-8.692,0-13.065,0
							C369.461,147.525,382.046,116.062,394.151,84.6z M384.499,142.245c9.705,0,19.357,0,28.582,0
							c-4.853-13.065-9.705-26.13-14.025-39.248C394.151,116.062,389.351,129.127,384.499,142.245z"/>
					</g>
				</g>
				<g>
					<path style="fill:#999999;" d="M285.686,81.188c25.65-1.44,51.832,0,77.482-0.48c0,3.893,0,7.732,0,11.145
						c-10.665,0-21.81,0-32.422,0c0,23.73,0,46.98,0,70.71c0,5.812,0.96,11.145,1.44,16.958c-4.853,0-10.185,0-15.038,0
						c0-29.062,0.48-58.605,0-87.667c-10.185,0.48-20.85,0-30.982,0C286.166,88.493,286.166,85.08,285.686,81.188z"/>
				</g>
				<g>
					<path style="fill:#999999;" d="M457.608,80.708c3.413,0.48,8.692-1.44,11.145,2.4c15.038,20.317,28.582,41.167,43.567,61.484
						c12.585-20.317,25.65-40.207,38.234-60.524c1.44-4.373,6.772-2.88,10.185-3.413c0,27.623,0,54.712,0,82.335
						c0,5.812,0.96,11.145,1.44,16.478c-4.853,0-10.185,0-15.038,0c0-22.77,0-45.54,0-68.31
						c-11.145,19.837-23.73,38.234-35.835,57.165c-13.545-18.877-28.103-36.795-39.728-56.685c0.96,22.77-1.44,45.54,1.44,67.777
						c-4.373,0-9.225,0-13.545,0c-0.48-24.69,0-49.379,0-74.122C460.008,97.185,459.048,88.973,457.608,80.708z"/>
				</g>
				<g>
					<g>
						<path style="fill:#999999;" d="M593.215,80.708c15.998,0.96,33.435-3.413,47.94,5.812
							c9.225,5.812,12.585,16.958,12.585,27.143c-2.4,10.665-9.225,20.317-19.357,24.69c-8.212,4.373-16.958,3.893-26.13,4.373
							c0.48,12.105-0.48,24.69,1.44,36.795c-4.853,0-10.185,0-15.038,0c0-26.13,0-51.832,0-77.962
							C594.655,94.252,593.695,87.48,593.215,80.708z M608.199,91.853c0,13.065,0,26.609,0,39.728c6.772,0,14.025,0.96,20.317-2.88
							c11.145-5.812,14.025-23.73,4.373-31.942C626.117,90.413,616.465,91.853,608.199,91.853z"/>
					</g>
				</g>
			</g>
		</g>
	</g>
</g>
<g id="Layer_1">
</g>
</svg>
