<?xml version="1.0" encoding="iso-8859-1"?>
<!-- Generator: Adobe Illustrator 18.1.1, SVG Export Plug-In . SVG Version: 6.00 Build 0)  -->
<svg version="1.1" xmlns="http://www.w3.org/2000/svg" xmlns:xlink="http://www.w3.org/1999/xlink" x="0px" y="0px"
	 viewBox="0 0 660 260" style="enable-background:new 0 0 660 260;" xml:space="preserve">
<g id="btc2ripple.logo">
	<g>
		<g>
			<path style="fill:#343947;" d="M44.624,95.481c9.51,0,17.725,3.318,24.604,9.915c6.758,6.637,10.198,15.499,10.198,26.466
				s-3.44,19.991-10.198,26.87c-6.758,6.879-14.69,10.319-23.673,10.319s-17.077-3.966-24.24-11.776v10.724H6.261V68.247h15.094
				v40.751C27.182,100.014,34.993,95.481,44.624,95.481z M21.072,132.428c0,6.758,2.104,12.423,6.232,16.673
				c4.087,4.37,9.146,6.475,15.094,6.475s11.129-2.104,15.499-6.475c4.37-4.37,6.637-9.915,6.637-16.673
				c0-6.758-2.104-12.585-6.475-17.077c-4.37-4.492-9.388-6.758-15.499-6.758c-5.949,0-11.129,2.266-15.216,6.758
				C23.055,119.964,21.072,125.549,21.072,132.428z"/>
			<path style="fill:#343947;" d="M107.793,108.593v36.259c0,3.44,0.931,6.07,2.63,8.093c1.862,1.983,4.37,3.035,7.527,3.035
				c3.156,0,6.353-1.578,9.267-4.775l6.232,10.602c-5.301,4.775-11.129,7.163-17.603,7.163c-6.353,0-11.897-2.266-16.43-6.637
				c-4.492-4.492-6.758-10.441-6.758-18.008v-35.733h-8.984V96.533h8.984v-22.5h15.094v22.5h18.777v12.059H107.793z"/>
			<path style="fill:#343947;" d="M169.709,169.092c-9.915,0-18.534-3.44-25.697-10.198c-7.122-6.758-10.683-15.499-10.683-26.466
				c0-10.967,3.723-19.87,11.25-26.749c7.527-6.879,16.551-10.319,27.396-10.319c10.845,0,19.87,3.723,27.275,11.129l-8.862,10.845
				c-6.232-5.423-12.423-8.093-18.655-8.093s-11.776,2.104-16.268,6.232c-4.613,4.249-6.879,9.51-6.879,16.146
				c0,6.637,2.266,12.181,6.879,16.673c4.613,4.613,10.198,6.879,16.956,6.879s12.99-3.035,18.939-9.146l8.862,9.672
				C191.156,164.721,181.12,169.092,169.709,169.092z"/>
			<path style="fill:#4C9EBF;" d="M249.389,110.697c2.63-3.723,3.966-7.406,3.966-11.129s-1.457-7.001-4.37-9.672
				c-2.914-2.63-6.475-3.966-10.845-3.966c-7.689,0-14.164,3.966-19.182,11.776l-12.828-7.406
				c4.087-6.232,8.741-10.845,13.638-14.042c5.018-3.156,11.371-4.775,19.182-4.775c7.81,0,14.69,2.509,20.638,7.406
				c5.949,5.018,8.862,11.776,8.862,20.396c0,4.897-1.174,9.388-3.723,13.88c-2.509,4.37-7.163,10.076-13.88,16.956l-22.095,22.5
				h42.612v15.216H207.02v-13.233l28.449-28.57C242.267,119.438,246.759,114.42,249.389,110.697z"/>
			<path style="fill:#343947;" d="M331.578,110.576c-7.406,0-13.111,2.388-16.794,7.284s-5.706,11.371-5.706,19.465v30.715h-15.094
				V96.574h15.094v14.447c2.388-4.492,5.706-8.215,9.915-10.967c4.087-2.914,8.62-4.37,13.233-4.492l0.121,15.216
				C332.104,110.576,331.861,110.576,331.578,110.576z"/>
			<path style="fill:#343947;" d="M344.447,82.248c-1.861-1.862-2.792-4.087-2.792-6.758s0.931-4.897,2.792-6.758
				c1.861-1.862,4.087-2.792,6.758-2.792c2.63,0,4.897,0.931,6.758,2.792c1.861,1.862,2.792,4.087,2.792,6.758
				s-0.931,4.897-2.792,6.758s-4.087,2.792-6.758,2.792S346.268,84.11,344.447,82.248z M358.57,168.039h-15.094V96.574h15.094
				V168.039z"/>
			<path style="fill:#343947;" d="M415.629,95.481c9.51,0,17.725,3.318,24.604,9.915c6.758,6.637,10.198,15.499,10.198,26.466
				s-3.44,19.991-10.198,26.87c-6.758,6.879-14.69,10.319-23.673,10.319c-8.984,0-17.077-3.966-24.24-11.776v36.785h-15.094V96.533
				h15.094v12.464C398.309,100.014,405.957,95.481,415.629,95.481z M392.077,132.428c0,6.758,2.104,12.423,6.232,16.673
				c4.087,4.37,9.146,6.475,15.094,6.475c5.949,0,11.129-2.104,15.499-6.475c4.371-4.37,6.637-9.915,6.637-16.673
				c0-6.758-2.104-12.585-6.475-17.077c-4.371-4.492-9.388-6.758-15.499-6.758c-5.949,0-11.129,2.266-15.216,6.758
				C394.181,119.964,392.077,125.549,392.077,132.428z"/>
			<path style="fill:#343947;" d="M503.524,95.481c9.51,0,17.725,3.318,24.604,9.915c6.758,6.637,10.198,15.499,10.198,26.466
				s-3.44,19.991-10.198,26.87c-6.758,6.879-14.69,10.319-23.673,10.319s-17.077-3.966-24.24-11.776v36.785h-15.094V96.533h15.094
				v12.464C486.164,100.014,493.853,95.481,503.524,95.481z M479.972,132.428c0,6.758,2.104,12.423,6.232,16.673
				c4.087,4.37,9.146,6.475,15.094,6.475c5.949,0,11.129-2.104,15.499-6.475c4.371-4.37,6.637-9.915,6.637-16.673
				c0-6.758-2.104-12.585-6.475-17.077c-4.371-4.492-9.388-6.758-15.499-6.758c-5.949,0-11.129,2.266-15.216,6.758
				C481.955,119.964,479.972,125.549,479.972,132.428z"/>
			<path style="fill:#343947;" d="M567.989,168.039h-15.094V68.247h15.094V168.039z"/>
			<path style="fill:#343947;" d="M653.739,138.903h-56.128c0.405,5.18,2.792,9.388,7.163,12.585
				c4.37,3.197,9.388,4.775,15.094,4.775c8.984,0,15.742-2.792,20.396-8.458l8.62,9.388c-7.689,7.932-17.725,11.897-30.189,11.897
				c-10.076,0-18.534-3.318-25.697-10.076c-7.001-6.637-10.602-15.62-10.602-26.87s3.561-20.234,10.724-26.87
				c7.163-6.637,15.62-9.915,25.414-9.915c9.672,0,18.008,2.914,24.766,8.862c6.758,5.827,10.198,14.042,10.198,24.24v10.441
				L653.739,138.903L653.739,138.903z M597.611,127.005h41.034c0-5.949-1.862-10.602-5.706-13.88
				c-3.844-3.318-8.458-4.897-13.88-4.897c-5.544,0-10.441,1.74-14.811,5.018C599.877,116.808,597.611,121.299,597.611,127.005z"/>
		</g>
		<g>
			<g>
				<polygon style="fill:#64B8DC;" points="262.217,185.643 252.707,176.214 268.044,160.877 253.759,146.592 263.31,137.041 
					286.983,160.877 				"/>
			</g>
		</g>
	</g>
</g>
<g id="Layer_1">
</g>
</svg>
