<?xml version="1.0" encoding="iso-8859-1"?>
<!-- Generator: Adobe Illustrator 18.1.1, SVG Export Plug-In . SVG Version: 6.00 Build 0)  -->
<svg version="1.1" xmlns="http://www.w3.org/2000/svg" xmlns:xlink="http://www.w3.org/1999/xlink" x="0px" y="0px"
	 viewBox="0 0 660 260" style="enable-background:new 0 0 660 260;" xml:space="preserve">
<g id="gatehub.logo">
	<g>
		<g>
			<path style="fill:#292929;" d="M306.655,149.619c0,0.887-0.309,1.64-0.927,2.258c-5.991,4.781-12.748,7.173-20.27,7.173
				c-8.892,0-16.488-3.15-22.785-9.45c-6.3-6.3-9.45-13.896-9.45-22.788s3.15-16.488,9.45-22.788c6.297-6.3,13.893-9.45,22.785-9.45
				c7.684,0,14.52,2.458,20.511,7.373c0.618,0.646,0.927,1.412,0.927,2.3s-0.316,1.645-0.948,2.276s-1.389,0.948-2.276,0.948
				c-0.887,0-1.652-0.325-2.297-0.966c-4.539-3.656-9.844-5.482-15.917-5.482c-7.117,0-13.196,2.518-18.232,7.554
				c-5.038,5.036-7.556,11.117-7.556,18.235c0,7.117,2.518,13.199,7.556,18.235c5.036,5.036,11.115,7.554,18.232,7.554
				c5.561,0,10.476-1.533,14.748-4.595v-14.746h-12.732c-0.887,0-1.647-0.316-2.279-0.948c-0.629-0.632-0.945-1.389-0.945-2.276
				c0-0.887,0.316-1.645,0.945-2.276c0.632-0.632,1.391-0.948,2.279-0.948h15.996c0.859,0,1.612,0.311,2.258,0.925
				c0.618,0.646,0.927,1.412,0.927,2.3V149.619z"/>
		</g>
		<g>
			<path style="fill:#292929;" d="M333.835,136.486l-8.023,20.59c-0.16,0.376-0.39,0.725-0.685,1.045
				c-0.643,0.618-1.41,0.929-2.295,0.929c-0.887,0-1.647-0.316-2.279-0.948c-0.629-0.632-0.945-1.389-0.945-2.276
				c0-0.511,0.093-0.966,0.281-1.371l22.402-57.622c0.167-0.483,0.446-0.929,0.846-1.329c0.623-0.618,1.375-0.929,2.258-0.929
				c0.892,0,1.654,0.311,2.295,0.929c0.381,0.4,0.65,0.846,0.808,1.329l22.402,57.622c0.195,0.404,0.288,0.859,0.288,1.371
				c0,0.887-0.316,1.645-0.948,2.276c-0.632,0.632-1.394,0.948-2.276,0.948c-0.892,0-1.645-0.311-2.258-0.929
				c-0.325-0.321-0.567-0.669-0.725-1.045l-8.019-20.59H333.835z M354.463,130.037l-9.069-23.331l-9.069,23.331H354.463z"/>
		</g>
		<g>
			<path style="fill:#292929;" d="M377.943,101.024c-0.887,0-1.649-0.316-2.276-0.948c-0.632-0.632-0.948-1.389-0.948-2.276
				c0-0.887,0.316-1.645,0.948-2.276c0.627-0.632,1.389-0.948,2.276-0.948h41.905c0.887,0,1.645,0.316,2.276,0.948
				s0.948,1.389,0.948,2.276c0,0.887-0.316,1.645-0.948,2.276s-1.389,0.948-2.276,0.948h-17.728v54.802
				c0,0.887-0.316,1.645-0.948,2.276c-0.632,0.632-1.389,0.948-2.276,0.948s-1.645-0.316-2.276-0.948
				c-0.632-0.632-0.948-1.389-0.948-2.276v-54.802H377.943z"/>
		</g>
		<g>
			<path style="fill:#292929;" d="M441.632,94.576h38.681c0.887,0,1.645,0.316,2.276,0.948s0.948,1.389,0.948,2.276
				c0,0.887-0.316,1.645-0.948,2.276s-1.389,0.948-2.276,0.948h-35.457v22.565h25.789c0.883,0,1.645,0.316,2.276,0.948
				c0.627,0.632,0.948,1.389,0.948,2.276c0,0.887-0.321,1.645-0.948,2.276c-0.632,0.632-1.394,0.948-2.276,0.948h-25.789v22.565
				h35.457c0.887,0,1.645,0.316,2.276,0.948c0.632,0.632,0.948,1.389,0.948,2.276s-0.316,1.645-0.948,2.276
				c-0.632,0.632-1.389,0.948-2.276,0.948h-38.681c-0.887,0-1.649-0.316-2.276-0.948c-0.632-0.632-0.948-1.389-0.948-2.276V97.8
				c0-0.887,0.316-1.645,0.948-2.276C439.983,94.892,440.745,94.576,441.632,94.576z"/>
		</g>
		<g>
			<path style="fill:#292929;" d="M496.81,97.8c0-0.887,0.316-1.645,0.948-2.276c0.627-0.632,1.389-0.948,2.276-0.948
				s1.645,0.316,2.276,0.948c0.632,0.632,0.948,1.389,0.948,2.276v25.789h32.233V97.8c0-0.887,0.316-1.645,0.948-2.276
				s1.389-0.948,2.276-0.948c0.887,0,1.645,0.316,2.276,0.948s0.948,1.389,0.948,2.276v58.026c0,0.887-0.316,1.645-0.948,2.276
				c-0.632,0.632-1.389,0.948-2.276,0.948c-0.887,0-1.645-0.316-2.276-0.948c-0.632-0.632-0.948-1.389-0.948-2.276v-25.789h-32.233
				v25.789c0,0.887-0.316,1.645-0.948,2.276c-0.632,0.632-1.389,0.948-2.276,0.948s-1.649-0.316-2.276-0.948
				c-0.632-0.632-0.948-1.389-0.948-2.276V97.8z"/>
		</g>
		<g>
			<path style="fill:#292929;" d="M558.929,97.8c0-0.887,0.316-1.645,0.948-2.276c0.627-0.632,1.389-0.948,2.276-0.948
				c0.887,0,1.645,0.316,2.276,0.948s0.948,1.389,0.948,2.276v38.686c0,4.46,1.57,8.26,4.711,11.401
				c3.145,3.145,6.945,4.715,11.405,4.715c4.46,0,8.26-1.57,11.405-4.715c3.141-3.141,4.711-6.941,4.711-11.401V97.8
				c0-0.887,0.316-1.645,0.948-2.276s1.389-0.948,2.276-0.948s1.645,0.316,2.276,0.948s0.948,1.389,0.948,2.276v38.686
				c0,6.23-2.202,11.549-6.606,15.954c-4.409,4.409-9.728,6.611-15.958,6.611c-6.235,0-11.549-2.202-15.958-6.611
				c-4.404-4.404-6.606-9.724-6.606-15.954V97.8z"/>
		</g>
		<g>
			<path style="fill:#292929;" d="M623.543,94.576h12.892c4.46,0,8.26,1.575,11.405,4.715c3.141,3.145,4.716,6.945,4.716,11.405
				s-1.575,8.26-4.716,11.401c1.988,0.943,3.828,2.244,5.519,3.912c3.763,3.786,5.64,8.353,5.64,13.696
				c0,5.347-1.886,9.91-5.659,13.682c-3.777,3.777-8.335,5.663-13.682,5.663h-16.116c-0.887,0-1.649-0.316-2.276-0.948
				c-0.632-0.632-0.948-1.389-0.948-2.276V97.8c0-0.887,0.316-1.645,0.948-2.276C621.894,94.892,622.656,94.576,623.543,94.576z
				 M626.767,101.024v19.34h9.668c2.662,0,4.938-0.948,6.829-2.839c1.896-1.895,2.843-4.172,2.843-6.829
				c0-2.662-0.948-4.938-2.843-6.834c-1.891-1.891-4.167-2.839-6.829-2.839H626.767z M626.767,126.813v25.789h12.892
				c3.573,0,6.616-1.254,9.129-3.768c2.509-2.513,3.768-5.552,3.768-9.129c0-3.568-1.259-6.611-3.768-9.124
				c-2.513-2.513-5.556-3.768-9.129-3.768H626.767z"/>
		</g>
		<g>
			<path style="fill:#292929;" d="M22.796,151.789c-1.954,0-3.907-0.265-5.805-0.79c-11.577-3.196-18.4-15.21-15.203-26.788
				c2.597-9.422,11.229-16,20.992-16c1.951,0,3.902,0.265,5.798,0.79c5.612,1.547,10.281,5.185,13.155,10.249
				c2.871,5.059,3.601,10.936,2.051,16.544C41.189,145.21,32.557,151.789,22.796,151.789z M22.78,114.655
				c-6.873,0-12.955,4.632-14.783,11.266c-2.251,8.153,2.553,16.618,10.709,18.871c1.34,0.367,2.715,0.557,4.091,0.557
				c6.873,0,12.95-4.632,14.778-11.266c1.092-3.954,0.578-8.093-1.445-11.656c-2.023-3.563-5.312-6.128-9.264-7.22
				C25.528,114.841,24.153,114.655,22.78,114.655z"/>
		</g>
		<g>
			<rect x="66.114" y="126.78" style="fill:#969696;" width="43.324" height="6.439"/>
		</g>
		<g>
			
				<rect x="117.049" y="89.573" transform="matrix(0.8658 0.5003 -0.5003 0.8658 71.791 -45.2506)" style="fill:#969696;" width="6.444" height="43.33"/>
		</g>
		<g>
			<polygon style="fill:#969696;" points="128.314,169.141 106.648,131.612 112.228,128.388 133.894,165.917 			"/>
		</g>
		<g>
			<path style="fill:#292929;" d="M152.781,76.736c-1.954,0-3.907-0.265-5.805-0.79c-11.577-3.192-18.4-15.21-15.208-26.788
				c2.599-9.422,11.231-16,20.994-16c1.951,0,3.902,0.265,5.798,0.79c11.58,3.192,18.402,15.215,15.21,26.792
				C171.171,70.157,162.54,76.736,152.781,76.736z M152.762,39.602c-6.873,0-12.955,4.632-14.783,11.266
				c-2.249,8.153,2.555,16.618,10.711,18.871c1.34,0.367,2.715,0.558,4.091,0.558c6.871,0,12.948-4.637,14.781-11.266
				c2.246-8.158-2.558-16.623-10.713-18.876C155.51,39.788,154.135,39.602,152.762,39.602z"/>
		</g>
		<g>
			<path style="fill:#292929;" d="M152.781,226.842c-1.954,0-3.907-0.265-5.805-0.79c-11.577-3.192-18.4-15.21-15.208-26.788
				c2.599-9.422,11.231-16,20.994-16c1.951,0,3.902,0.265,5.798,0.79c11.58,3.192,18.402,15.215,15.21,26.792
				C171.171,220.263,162.54,226.842,152.781,226.842z M152.762,189.708c-6.873,0-12.955,4.632-14.783,11.266
				c-2.249,8.153,2.555,16.618,10.711,18.871c1.34,0.367,2.715,0.557,4.091,0.557c6.871,0,12.948-4.637,14.781-11.266
				c2.249-8.158-2.558-16.623-10.713-18.876C155.51,189.894,154.135,189.708,152.762,189.708z"/>
		</g>
	</g>
</g>
<g id="Layer_1">
</g>
</svg>
