<?xml version="1.0" encoding="iso-8859-1"?>
<!-- Generator: Adobe Illustrator 18.1.1, SVG Export Plug-In . SVG Version: 6.00 Build 0)  -->
<svg version="1.1" xmlns="http://www.w3.org/2000/svg" xmlns:xlink="http://www.w3.org/1999/xlink" x="0px" y="0px"
	 viewBox="0 0 660 260" style="enable-background:new 0 0 660 260;" xml:space="preserve">
<g id="ripplesingapore.logo.grayscale">
	<g>
		<g>
			<g>
				<g>
					<path style="fill:#999999;" d="M240.981,90.633c3.943,0.067,7.902,0.116,11.861,0.216c-0.2,20.495-0.266,41.007,0.033,61.502
						c-3.959,0.15-7.935,0.2-11.894,0.266C240.948,131.956,240.964,111.294,240.981,90.633z"/>
				</g>
				<g>
					<path style="fill:#999999;" d="M126.578,92.513c4.209-4.059,12.527-0.299,11.462,5.739c-0.166,4.874-6.421,7.669-10.364,5.09
						C123.8,101.313,123.218,95.257,126.578,92.513z"/>
				</g>
				<g>
					<path style="fill:#999999;" d="M347.782,92.18c3.793-2.978,10.53-0.782,10.93,4.292c0.998,4.575-3.56,8.767-8.018,7.686
						C345.087,103.525,342.974,95.274,347.782,92.18z"/>
				</g>
				<g>
					<path style="fill:#999999;" d="M308.904,96.605c8.102-5.09,18.216-3.926,27.049-1.747c0.067,4.159,0.083,8.301,0.183,12.46
						c-5.39-2.944-11.911-5.207-17.95-2.928c-3.41,1.181-5.074,5.872-2.229,8.484c5.007,4.824,12.427,6.022,17.417,10.896
						c7.902,7.187,6.554,22.491-3.377,27.216c-8.817,3.959-19.297,3.177-28.014-0.665c0.116-4.292,0.116-8.584,0.033-12.876
						c5.556,4.092,12.676,7.137,19.63,4.908c3.493-0.882,5.723-5.556,2.994-8.418c-4.542-5.257-12.144-6.188-17.218-10.813
						C299.505,116.468,299.987,102.161,308.904,96.605z"/>
				</g>
				<g>
					<g>
						<path style="fill:#999999;" d="M158.352,116.717c3.261-3.627,7.236-7.37,12.493-7.12c7.053-0.25,12.876,5.456,14.24,12.127
							c2.396,10.081,1.314,23.107-7.852,29.561c-6.089,4.159-14.307,2.362-18.848-3.177c0.266,7.885,0.133,15.771,0.133,23.656
							c-3.909,0-7.819,0-11.728,0c-0.05-20.345,0.033-40.691-0.05-61.053c3.959,0.017,7.919,0.017,11.878,0.017
							C158.552,112.226,158.419,115.22,158.352,116.717z M163.043,120.527c-5.323,3.294-5.074,10.48-4.425,15.937
							c0.316,4.874,5.789,9,10.397,6.471c5.59-3.227,5.723-10.963,4.841-16.602C173.441,121.309,167.518,117.632,163.043,120.527z"
							/>
					</g>
				</g>
				<g>
					<g>
						<path style="fill:#999999;" d="M193.669,110.862c3.959-0.1,7.919-0.15,11.878-0.216c-0.033,1.464-0.083,4.408-0.116,5.889
							c3.51-3.876,8.135-7.702,13.758-6.854c7.187,0.299,12.211,6.821,13.308,13.491c1.713,9.516,0.665,21.177-7.469,27.582
							c-5.989,4.658-14.922,3.31-19.597-2.595c0.15,7.902,0.15,15.804,0,23.706c-3.876-0.083-7.736-0.116-11.612-0.116
							C193.669,151.452,193.952,131.157,193.669,110.862z M209.773,120.726c-5.007,3.51-4.824,10.464-4.109,15.887
							c0.449,5.107,6.671,9.249,11.179,5.839c5.124-3.993,5.074-11.628,3.76-17.417
							C219.654,120.394,213.665,117.932,209.773,120.726z"/>
					</g>
				</g>
				<g>
					<g>
						<path style="fill:#999999;" d="M266.117,115.353c6.688-7.702,20.695-7.802,26.634,0.815c4.059,5.54,3.693,12.693,3.776,19.214
							c-8.318-0.017-16.619,0.017-24.937-0.067c1.048,2.678,1.547,6.089,4.375,7.553c5.49,3.044,11.894,0.932,17.218-1.364
							c-0.05,3.061-0.033,6.139-0.033,9.216c-9.266,3.993-22.441,4.874-29.012-4.225
							C258.232,137.262,258.698,123.638,266.117,115.353z M271.258,127.181c5.057,0.383,10.164,0.399,15.222-0.083
							c-1.347-3.011-1.747-7.985-5.889-8.434C275.2,117.416,273.038,123.388,271.258,127.181z"/>
					</g>
				</g>
				<g>
					<path style="fill:#999999;" d="M379.156,116.784c3.593-4.309,8.717-8.268,14.723-7.004c5.889,0.566,9.599,6.255,10.081,11.761
						c0.932,10.264,0,20.595,0.532,30.876c-3.976,0.083-7.968,0.116-11.961,0.15c-0.05-8.135,0.216-16.286-0.033-24.421
						c-0.15-2.945-0.715-6.671-3.76-8.018c-4.359-2.179-9.066,2.262-9.183,6.588c-0.466,8.584-0.033,17.185-0.15,25.769
						c-3.876,0.033-7.752,0.083-11.612,0.216c-0.416-13.941,0.233-27.881-0.366-41.805c4.009-0.133,8.018-0.183,12.028-0.2
						C379.389,112.209,379.239,115.253,379.156,116.784z"/>
				</g>
				<g>
					<g>
						<path style="fill:#999999;" d="M419.547,112.442c5.839-4.458,14.822-3.51,19.264,2.495c0.133-1.031,0.399-3.094,0.532-4.126
							c3.826-0.299,7.686-0.067,11.545,0.05c-0.366,13.009,0.1,26.018-0.233,39.027c-0.2,7.253-3.194,14.889-9.599,18.798
							c-7.885,4.791-17.75,4.092-26.251,1.564c-0.033-3.71-0.067-7.419-0.133-11.113c5.872,2.994,13.508,5.423,19.497,1.331
							c4.542-2.945,4.625-8.833,5.273-13.608c-3.676,3.859-8.434,7.719-14.173,6.638c-7.785-0.599-12.776-8.118-13.625-15.321
							C410.398,129.144,411.779,118.314,419.547,112.442z M427.632,120.726c-6.305,5.323-6.737,18.648,1.231,22.591
							c7.669,2.213,11.296-7.286,10.314-13.375C440.059,123.887,433.688,116.618,427.632,120.726z"/>
					</g>
				</g>
				<g>
					<g>
						<path style="fill:#999999;" d="M461.319,112.941c7.153-2.579,15.305-4.991,22.641-1.68c5.273,2.312,7.719,8.218,7.919,13.674
							c0.532,9.166,0.033,18.366,0.216,27.549c-3.776,0.017-7.553,0.05-11.312,0.067c0.05-1.464,0.166-4.359,0.233-5.822
							c-3.194,4.525-8.401,8.085-14.174,6.621c-11.445-1.83-12.427-20.112-2.512-24.671c5.34-2.362,11.345-2.462,17.051-3.394
							c-1.381-10.564-14.273-6.521-20.162-2.445C461.269,119.545,461.303,116.235,461.319,112.941z M468.955,136.83
							c-2.512,3.893,1.946,8.9,6.172,7.386c5.14-1.248,5.939-7.137,6.172-11.562C477.273,133.819,471.434,132.687,468.955,136.83z"
							/>
					</g>
				</g>
				<g>
					<g>
						<path style="fill:#999999;" d="M512.807,116.751c2.944-3.044,6.022-6.538,10.53-7.004c7.203-1.281,14.157,3.893,15.904,10.813
							c2.778,10.081,1.996,22.957-6.604,30.094c-6.055,4.841-15.039,3.344-19.813-2.545c0.283,7.885,0.15,15.771,0.15,23.656
							c-3.909,0-7.802,0-11.695,0c-0.033-20.345,0.017-40.691-0.033-61.053c3.943,0.017,7.885,0.017,11.845,0.017
							C513.006,112.242,512.873,115.237,512.807,116.751z M517.564,120.51c-5.357,3.31-5.157,10.53-4.475,16.02
							c0.366,5.29,6.837,9.366,11.362,5.822c4.891-4.026,4.907-11.479,3.61-17.168C527.196,120.643,521.524,117.965,517.564,120.51z
							"/>
					</g>
				</g>
				<g>
					<g>
						<path style="fill:#999999;" d="M559.12,110.878c7.802-2.545,17.634-1.381,23.09,5.273c6.155,7.652,6.255,19.098,1.946,27.648
							c-6.837,13.292-29.511,13.159-35.7-0.632C543.25,132.055,546.128,115.02,559.12,110.878z M563.711,120.161
							c-9.499,4.492-7.669,25.469,4.874,23.34c7.336-1.946,6.904-11.179,6.055-17.118
							C574.092,121.375,568.319,118.081,563.711,120.161z"/>
					</g>
				</g>
				<g>
					<path style="fill:#999999;" d="M606.149,118.398c2.312-5.323,7.087-9.382,13.242-8.318c0.017,4.009,0.017,8.002,0.033,12.011
						c-4.225-1.431-9.715-1.115-11.595,3.593c-2.811,8.634-0.865,17.966-1.431,26.9c-3.959-0.033-7.902-0.083-11.861-0.2
						c0.333-13.874,0.083-27.765,0.15-41.656c3.943,0,7.885,0,11.828,0.017C606.398,113.29,606.282,115.852,606.149,118.398z"/>
				</g>
				<g>
					<g>
						<path style="fill:#999999;" d="M629.439,114.438c6.97-6.854,20.179-6.488,25.852,1.847c3.959,5.523,3.61,12.626,3.71,19.098
							c-8.368,0.033-16.752-0.166-25.103,0.166c1.281,2.628,1.847,6.055,4.741,7.453c5.456,2.861,11.711,0.799,16.935-1.547
							c0.067,3.044-0.017,6.089,0.116,9.133c-9.499,4.392-23.44,4.941-29.695-4.957C620.672,136.081,621.304,122.29,629.439,114.438
							z M633.88,127.347c4.941,0.133,9.898,0.116,14.856-0.05c-1.065-3.144-1.497-8.035-5.606-8.634
							C637.723,117.366,635.328,123.372,633.88,127.347z"/>
					</g>
				</g>
				<g>
					<path style="fill:#999999;" d="M95.104,110.712c3.909,0.017,7.835,0.017,11.745,0.017c-0.067,2.479-0.133,4.957-0.216,7.436
						c2.412-5.24,7.004-9,13.092-8.168c0.033,4.026,0.05,8.035,0.116,12.061c-4.608-1.664-10.663-0.715-12.144,4.658
						c-1.913,8.434-0.499,17.251-0.882,25.835c-3.909-0.017-7.819-0.017-11.711-0.017C95.137,138.593,95.137,124.652,95.104,110.712
						z"/>
				</g>
				<g>
					<path style="fill:#999999;" d="M125.231,110.745c3.909-0.017,7.802-0.033,11.695-0.083c0.116,13.957-0.017,27.931,0.083,41.888
						c-3.959-0.017-7.902-0.033-11.845-0.1C125.347,138.56,125.231,124.652,125.231,110.745z"/>
				</g>
				<g>
					<path style="fill:#999999;" d="M346.085,152.55c0.1-13.991-0.116-27.964,0.1-41.955c3.893,0.1,7.769,0.133,11.662,0.166
						c0,13.907-0.1,27.798,0.05,41.705C353.953,152.517,350.011,152.534,346.085,152.55z"/>
				</g>
			</g>
		</g>
		<path style="fill:#999999;" d="M69.403,138.835c-2.958-1.708-6.291-2.479-9.589-2.318c-1.208-0.002-2.399-0.322-3.446-0.925
			c-2.13-1.23-3.453-3.522-3.453-5.982c0-2.46,1.323-4.752,3.453-5.982c1.047-0.604,2.239-0.924,3.447-0.925
			c3.298,0.16,6.63-0.611,9.588-2.318c5.406-3.122,8.737-8.891,8.737-15.133c0-6.244-3.331-12.012-8.737-15.134
			c-5.407-3.122-12.068-3.122-17.475,0c-5.406,3.122-8.737,8.89-8.737,15.134c0,3.386,0.982,6.631,2.741,9.391
			c0.621,1.05,0.967,2.262,0.967,3.519c0,2.46-1.323,4.752-3.453,5.981c-1.048,0.605-2.243,0.926-3.454,0.926
			c-1.211,0-2.405-0.32-3.453-0.926c-1.086-0.627-1.962-1.531-2.56-2.591c-1.511-2.907-3.832-5.381-6.766-7.076
			c-5.407-3.122-12.068-3.122-17.475,0C4.331,117.598,1,123.367,1,129.61c0,6.243,3.331,12.012,8.737,15.133
			c5.407,3.122,12.068,3.122,17.475,0c2.933-1.694,5.253-4.167,6.764-7.072c0.598-1.063,1.474-1.967,2.562-2.594
			c1.049-0.606,2.243-0.926,3.453-0.926c1.211,0,2.405,0.32,3.453,0.926c2.13,1.23,3.454,3.522,3.454,5.981
			c0,1.258-0.346,2.471-0.969,3.521c-1.758,2.76-2.739,6.004-2.739,9.389c0,6.243,3.331,12.012,8.737,15.133
			c5.407,3.122,12.068,3.122,17.475,0c5.406-3.121,8.737-8.89,8.737-15.133C78.14,147.725,74.809,141.956,69.403,138.835z"/>
	</g>
</g>
<g id="Layer_1">
</g>
</svg>
