<?xml version="1.0" encoding="iso-8859-1"?>
<!-- Generator: Adobe Illustrator 18.1.1, SVG Export Plug-In . SVG Version: 6.00 Build 0)  -->
<svg version="1.1" xmlns="http://www.w3.org/2000/svg" xmlns:xlink="http://www.w3.org/1999/xlink" x="0px" y="0px"
	 viewBox="0 0 660 260" style="enable-background:new 0 0 660 260;" xml:space="preserve">
<g id="ripplesingapore.logo">
	<g>
		<g>
			<path style="fill:#D7D7D9;" d="M62.192,147.218c-1.747-2.935-4.279-5.236-7.235-6.707c-1.053-0.592-1.937-1.453-2.555-2.49
				c-1.258-2.114-1.293-4.76-0.091-6.906c1.201-2.146,3.476-3.5,5.935-3.533c1.208-0.016,2.405,0.287,3.46,0.877
				c2.799,1.75,6.084,2.706,9.499,2.66c6.242-0.083,11.966-3.49,15.016-8.938c3.05-5.448,2.961-12.108-0.232-17.473
				c-3.193-5.365-9.006-8.619-15.249-8.536c-6.242,0.083-11.966,3.49-15.016,8.938c-1.654,2.954-2.383,6.266-2.196,9.533
				c0.03,1.219-0.261,2.446-0.875,3.543c-1.202,2.146-3.476,3.5-5.935,3.532c-1.21,0.016-2.409-0.288-3.466-0.879
				c-1.056-0.591-1.942-1.454-2.561-2.494c-0.641-1.078-0.964-2.294-0.968-3.511c0.102-3.275-0.715-6.567-2.448-9.479
				c-3.193-5.365-9.006-8.618-15.248-8.536c-6.243,0.083-11.967,3.49-15.016,8.938c-3.049,5.448-2.961,12.108,0.232,17.473
				c3.193,5.365,9.006,8.619,15.248,8.536c3.387-0.045,6.62-1.07,9.357-2.867c1.041-0.635,2.247-0.996,3.503-1.013
				c1.211-0.016,2.409,0.288,3.466,0.879c1.057,0.591,1.942,1.454,2.561,2.494c1.258,2.114,1.294,4.76,0.092,6.906
				c-0.614,1.098-1.509,1.987-2.566,2.599c-2.882,1.549-5.323,3.902-6.976,6.855c-3.049,5.448-2.961,12.109,0.232,17.473
				c3.193,5.365,9.005,8.619,15.249,8.536c6.242-0.083,11.966-3.49,15.016-8.938C65.474,159.243,65.385,152.582,62.192,147.218z"/>
		</g>
		<g>
			<path style="fill:#DDAC43;" d="M66.737,142.458c-2.479-2.35-5.542-3.875-8.786-4.487c-1.174-0.283-2.259-0.871-3.136-1.702
				c-1.785-1.692-2.538-4.229-1.966-6.621c0.573-2.392,2.393-4.314,4.751-5.014c1.159-0.344,2.392-0.377,3.568-0.097
				c3.17,0.923,6.59,0.949,9.864-0.023c5.984-1.777,10.566-6.613,12.019-12.684c1.453-6.072-0.443-12.457-4.974-16.752
				c-4.532-4.294-11.01-5.845-16.995-4.068c-5.984,1.777-10.566,6.612-12.02,12.684c-0.788,3.293-0.589,6.678,0.479,9.771
				c0.36,1.165,0.414,2.425,0.122,3.647c-0.573,2.392-2.393,4.313-4.751,5.013c-1.16,0.344-2.397,0.378-3.574,0.096
				c-1.177-0.282-2.264-0.871-3.143-1.704c-0.91-0.863-1.552-1.945-1.887-3.116c-0.793-3.179-2.474-6.126-4.933-8.456
				c-4.532-4.294-11.01-5.845-16.995-4.068c-5.985,1.777-10.567,6.613-12.02,12.684c-1.453,6.072,0.443,12.457,4.975,16.751
				c4.531,4.295,11.01,5.845,16.995,4.068c3.247-0.964,6.079-2.83,8.225-5.303c0.829-0.894,1.892-1.57,3.095-1.927
				c1.161-0.345,2.397-0.378,3.574-0.096c1.178,0.282,2.265,0.871,3.143,1.704c1.786,1.692,2.539,4.229,1.967,6.62
				c-0.293,1.223-0.912,2.323-1.762,3.199c-2.352,2.275-4.061,5.202-4.849,8.494c-1.453,6.072,0.443,12.457,4.974,16.751
				c4.532,4.294,11.01,5.846,16.995,4.068c5.984-1.777,10.566-6.612,12.019-12.684C73.165,153.137,71.269,146.751,66.737,142.458z"
				/>
		</g>
		<g>
			<path style="fill:#404040;" d="M240.981,89.226c3.943,0.067,7.902,0.116,11.861,0.216c-0.2,20.495-0.266,41.007,0.033,61.502
				c-3.959,0.15-7.935,0.2-11.894,0.266C240.948,130.549,240.964,109.887,240.981,89.226z"/>
			<path style="fill:#404040;" d="M126.578,91.106c4.209-4.059,12.527-0.299,11.462,5.739c-0.166,4.874-6.421,7.669-10.364,5.09
				C123.8,99.906,123.218,93.851,126.578,91.106z"/>
			<path style="fill:#404040;" d="M347.782,90.773c3.793-2.978,10.53-0.782,10.93,4.292c0.998,4.575-3.56,8.767-8.018,7.686
				C345.087,102.119,342.974,93.867,347.782,90.773z"/>
			<path style="fill:#404040;" d="M308.904,95.198c8.102-5.09,18.216-3.926,27.049-1.747c0.067,4.159,0.083,8.301,0.183,12.46
				c-5.39-2.944-11.911-5.207-17.95-2.928c-3.41,1.181-5.074,5.872-2.229,8.484c5.007,4.824,12.427,6.022,17.417,10.896
				c7.902,7.187,6.554,22.491-3.377,27.216c-8.817,3.959-19.297,3.177-28.014-0.665c0.116-4.292,0.116-8.584,0.033-12.876
				c5.556,4.092,12.676,7.137,19.63,4.907c3.493-0.882,5.723-5.556,2.994-8.418c-4.542-5.257-12.144-6.188-17.218-10.813
				C299.505,115.061,299.987,100.754,308.904,95.198z"/>
			<g>
				<path style="fill:#404040;" d="M158.352,115.311c3.261-3.627,7.236-7.37,12.493-7.12c7.053-0.25,12.876,5.456,14.24,12.127
					c2.396,10.081,1.314,23.107-7.852,29.561c-6.089,4.159-14.307,2.362-18.848-3.177c0.266,7.885,0.133,15.771,0.133,23.656
					c-3.909,0-7.819,0-11.728,0c-0.05-20.345,0.033-40.691-0.05-61.053c3.959,0.017,7.919,0.017,11.878,0.017
					C158.552,110.819,158.419,113.813,158.352,115.311z M163.043,119.12c-5.323,3.294-5.074,10.48-4.425,15.937
					c0.316,4.874,5.789,9,10.397,6.471c5.59-3.227,5.723-10.963,4.841-16.602C173.441,119.902,167.518,116.226,163.043,119.12z"/>
			</g>
			<g>
				<path style="fill:#404040;" d="M193.669,109.455c3.959-0.1,7.919-0.15,11.878-0.216c-0.033,1.464-0.083,4.408-0.116,5.889
					c3.51-3.876,8.135-7.702,13.758-6.854c7.187,0.299,12.211,6.821,13.308,13.491c1.713,9.516,0.665,21.177-7.469,27.582
					c-5.989,4.658-14.922,3.31-19.597-2.595c0.15,7.902,0.15,15.804,0,23.706c-3.876-0.083-7.736-0.116-11.612-0.116
					C193.669,150.046,193.952,129.75,193.669,109.455z M209.773,119.32c-5.007,3.51-4.824,10.464-4.109,15.887
					c0.449,5.107,6.671,9.249,11.179,5.839c5.124-3.993,5.074-11.628,3.76-17.417C219.654,118.987,213.665,116.525,209.773,119.32z"
					/>
			</g>
			<g>
				<path style="fill:#404040;" d="M266.117,113.946c6.688-7.702,20.695-7.802,26.634,0.815c4.059,5.54,3.693,12.693,3.776,19.214
					c-8.318-0.017-16.619,0.017-24.937-0.067c1.048,2.678,1.547,6.089,4.375,7.553c5.49,3.044,11.894,0.932,17.218-1.364
					c-0.05,3.061-0.033,6.139-0.033,9.216c-9.266,3.993-22.441,4.874-29.012-4.225C258.232,135.855,258.698,122.231,266.117,113.946
					z M271.258,125.774c5.057,0.383,10.164,0.399,15.222-0.083c-1.347-3.011-1.747-7.985-5.889-8.434
					C275.2,116.009,273.038,121.981,271.258,125.774z"/>
			</g>
			<path style="fill:#404040;" d="M379.156,115.377c3.593-4.309,8.717-8.268,14.723-7.004c5.889,0.566,9.599,6.255,10.081,11.761
				c0.932,10.264,0,20.595,0.532,30.876c-3.976,0.083-7.968,0.116-11.961,0.15c-0.05-8.135,0.216-16.286-0.033-24.421
				c-0.15-2.944-0.715-6.671-3.76-8.018c-4.359-2.179-9.066,2.262-9.183,6.588c-0.466,8.584-0.033,17.185-0.15,25.769
				c-3.876,0.033-7.752,0.083-11.612,0.216c-0.416-13.941,0.233-27.881-0.366-41.805c4.009-0.133,8.018-0.183,12.028-0.2
				C379.389,110.802,379.239,113.847,379.156,115.377z"/>
			<g>
				<path style="fill:#404040;" d="M419.547,111.035c5.839-4.458,14.822-3.51,19.264,2.495c0.133-1.031,0.399-3.094,0.532-4.126
					c3.826-0.299,7.686-0.067,11.545,0.05c-0.366,13.009,0.1,26.018-0.233,39.027c-0.2,7.253-3.194,14.889-9.599,18.798
					c-7.885,4.791-17.75,4.092-26.251,1.564c-0.033-3.71-0.067-7.419-0.133-11.113c5.872,2.994,13.508,5.423,19.497,1.331
					c4.542-2.944,4.625-8.833,5.273-13.608c-3.676,3.859-8.434,7.719-14.173,6.638c-7.785-0.599-12.776-8.118-13.625-15.321
					C410.398,127.737,411.779,116.908,419.547,111.035z M427.632,119.32c-6.305,5.323-6.737,18.648,1.231,22.591
					c7.669,2.213,11.296-7.286,10.314-13.375C440.059,122.48,433.688,115.211,427.632,119.32z"/>
			</g>
			<g>
				<path style="fill:#404040;" d="M461.319,111.534c7.153-2.579,15.305-4.991,22.641-1.68c5.273,2.312,7.719,8.218,7.919,13.674
					c0.532,9.166,0.033,18.366,0.216,27.549c-3.776,0.017-7.553,0.05-11.312,0.067c0.05-1.464,0.166-4.359,0.233-5.822
					c-3.194,4.525-8.401,8.085-14.174,6.621c-11.445-1.83-12.427-20.112-2.512-24.671c5.34-2.362,11.345-2.462,17.051-3.394
					c-1.381-10.564-14.273-6.521-20.162-2.445C461.269,118.139,461.303,114.828,461.319,111.534z M468.955,135.423
					c-2.512,3.893,1.946,8.9,6.172,7.386c5.14-1.248,5.939-7.137,6.172-11.562C477.273,132.412,471.434,131.281,468.955,135.423z"/>
			</g>
			<g>
				<path style="fill:#404040;" d="M512.807,115.344c2.944-3.044,6.022-6.538,10.53-7.004c7.203-1.281,14.157,3.893,15.904,10.813
					c2.778,10.081,1.996,22.957-6.604,30.094c-6.055,4.841-15.039,3.344-19.813-2.545c0.283,7.885,0.15,15.771,0.15,23.656
					c-3.909,0-7.802,0-11.695,0c-0.033-20.345,0.017-40.691-0.033-61.053c3.943,0.017,7.885,0.017,11.845,0.017
					C513.006,110.836,512.873,113.83,512.807,115.344z M517.564,119.103c-5.357,3.31-5.157,10.53-4.475,16.02
					c0.366,5.29,6.837,9.366,11.362,5.822c4.891-4.026,4.907-11.479,3.61-17.168C527.196,119.237,521.524,116.558,517.564,119.103z"
					/>
			</g>
			<g>
				<path style="fill:#404040;" d="M559.12,109.471c7.802-2.545,17.634-1.381,23.09,5.273c6.155,7.652,6.255,19.098,1.946,27.648
					c-6.837,13.292-29.511,13.159-35.7-0.632C543.25,130.649,546.128,113.614,559.12,109.471z M563.711,118.754
					c-9.499,4.492-7.669,25.469,4.874,23.34c7.336-1.946,6.904-11.179,6.055-17.118
					C574.092,119.969,568.319,116.675,563.711,118.754z"/>
			</g>
			<path style="fill:#404040;" d="M606.149,116.991c2.312-5.323,7.087-9.382,13.242-8.318c0.017,4.009,0.017,8.002,0.033,12.011
				c-4.225-1.431-9.715-1.115-11.595,3.593c-2.811,8.634-0.865,17.966-1.431,26.9c-3.959-0.033-7.902-0.083-11.861-0.2
				c0.333-13.874,0.083-27.765,0.15-41.656c3.943,0,7.885,0,11.828,0.017C606.398,111.884,606.282,114.446,606.149,116.991z"/>
			<g>
				<path style="fill:#404040;" d="M629.439,113.031c6.97-6.854,20.179-6.488,25.852,1.847c3.959,5.523,3.61,12.626,3.71,19.098
					c-8.368,0.033-16.752-0.166-25.103,0.166c1.281,2.628,1.847,6.055,4.741,7.453c5.456,2.861,11.711,0.799,16.935-1.547
					c0.067,3.044-0.017,6.089,0.116,9.133c-9.499,4.392-23.44,4.941-29.695-4.957C620.672,134.674,621.304,120.883,629.439,113.031z
					 M633.88,125.941c4.941,0.133,9.898,0.116,14.856-0.05c-1.065-3.144-1.497-8.035-5.606-8.634
					C637.723,115.959,635.328,121.965,633.88,125.941z"/>
			</g>
			<path style="fill:#404040;" d="M95.104,109.305c3.909,0.017,7.835,0.017,11.745,0.017c-0.067,2.479-0.133,4.957-0.216,7.436
				c2.412-5.24,7.004-9,13.092-8.168c0.033,4.026,0.05,8.035,0.116,12.061c-4.608-1.664-10.663-0.715-12.144,4.658
				c-1.913,8.434-0.499,17.251-0.882,25.835c-3.909-0.017-7.819-0.017-11.711-0.017C95.137,137.186,95.137,123.246,95.104,109.305z"
				/>
			<path style="fill:#404040;" d="M125.231,109.338c3.909-0.017,7.802-0.033,11.695-0.083c0.116,13.957-0.017,27.931,0.083,41.888
				c-3.959-0.017-7.902-0.033-11.845-0.1C125.347,137.153,125.231,123.246,125.231,109.338z"/>
			<path style="fill:#404040;" d="M346.085,151.144c0.1-13.991-0.116-27.964,0.1-41.955c3.893,0.1,7.769,0.133,11.662,0.166
				c0,13.907-0.1,27.798,0.05,41.705C353.953,151.11,350.011,151.127,346.085,151.144z"/>
		</g>
		<g>
			
				<radialGradient id="SVGID_1_" cx="104.7426" cy="65.0282" r="2.8739" gradientTransform="matrix(14 0 0 14 -1419.8053 -782.1898)" gradientUnits="userSpaceOnUse">
				<stop  offset="0" style="stop-color:#5191B5"/>
				<stop  offset="1" style="stop-color:#3D6AA7"/>
			</radialGradient>
			<path style="fill:url(#SVGID_1_);" d="M69.403,137.429c-2.958-1.708-6.291-2.479-9.589-2.318
				c-1.208-0.002-2.399-0.322-3.446-0.925c-2.13-1.23-3.453-3.522-3.453-5.982c0-2.46,1.323-4.752,3.453-5.982
				c1.047-0.604,2.239-0.924,3.447-0.925c3.298,0.16,6.63-0.611,9.588-2.318c5.406-3.122,8.737-8.891,8.737-15.133
				c0-6.244-3.331-12.012-8.737-15.134c-5.407-3.122-12.068-3.122-17.475,0c-5.406,3.122-8.737,8.89-8.737,15.134
				c0,3.386,0.982,6.631,2.741,9.391c0.621,1.05,0.967,2.262,0.967,3.519c0,2.46-1.323,4.752-3.453,5.981
				c-1.048,0.605-2.243,0.925-3.454,0.925c-1.211,0-2.405-0.32-3.453-0.925c-1.086-0.627-1.962-1.531-2.56-2.591
				c-1.511-2.907-3.832-5.381-6.766-7.076c-5.407-3.122-12.068-3.122-17.475,0C4.331,116.191,1,121.96,1,128.203
				c0,6.243,3.331,12.012,8.737,15.133c5.407,3.122,12.068,3.122,17.475,0c2.933-1.694,5.253-4.167,6.764-7.072
				c0.598-1.063,1.474-1.967,2.562-2.594c1.049-0.606,2.243-0.926,3.453-0.926c1.211,0,2.405,0.32,3.453,0.926
				c2.13,1.23,3.454,3.522,3.454,5.981c0,1.258-0.346,2.471-0.969,3.521c-1.758,2.76-2.739,6.004-2.739,9.389
				c0,6.243,3.331,12.012,8.737,15.133c5.407,3.122,12.068,3.122,17.475,0c5.406-3.121,8.737-8.89,8.737-15.133
				C78.14,146.319,74.809,140.55,69.403,137.429z"/>
		</g>
	</g>
</g>
<g id="Layer_1">
</g>
</svg>
