<?xml version="1.0" encoding="iso-8859-1"?>
<!-- Generator: Adobe Illustrator 18.1.1, SVG Export Plug-In . SVG Version: 6.00 Build 0)  -->
<svg version="1.1" xmlns="http://www.w3.org/2000/svg" xmlns:xlink="http://www.w3.org/1999/xlink" x="0px" y="0px"
	 viewBox="0 0 660 260" style="enable-background:new 0 0 660 260;" xml:space="preserve">
<g id="rippex.logo.grayscale">
	<g>
		<g>
			<g>
				<path style="fill:#999999;" d="M297.93,148.279c-1.456-0.364-3.641-0.91-6.372-1.456c-2.731-0.546-5.825-0.728-9.466-0.728
					c-2.002,0-4.187,0.182-6.554,0.546c-2.367,0.364-3.823,0.728-4.733,0.91v57.708h-18.568V136.81
					c3.641-1.274,8.01-2.367,13.471-3.459c5.279-1.092,11.287-1.638,17.84-1.638c1.274,0,2.731,0,4.187,0.182
					c1.638,0.182,3.277,0.364,4.915,0.546c1.638,0.182,3.277,0.546,4.733,0.91c1.456,0.364,2.731,0.546,3.641,0.91L297.93,148.279z"
					/>
			</g>
		</g>
		<g>
			<g>
				<path style="fill:#999999;" d="M331.608,112.234c0,3.095-1.092,5.643-3.277,7.464s-4.915,2.731-8.01,2.731
					s-5.825-0.91-8.192-2.731c-2.185-1.82-3.459-4.369-3.459-7.464c0-3.277,1.092-5.643,3.459-7.646
					c2.185-1.82,4.915-2.731,8.192-2.731c3.095,0,5.643,0.91,8.01,2.731C330.515,106.591,331.608,109.14,331.608,112.234z
					 M329.605,205.258h-18.568v-71.907h18.568V205.258z"/>
			</g>
		</g>
		<g>
			<g>
				<path style="fill:#999999;" d="M416.622,169.396c0,5.461-0.728,10.558-2.367,15.11c-1.638,4.551-3.823,8.556-6.736,11.833
					c-2.913,3.277-6.736,5.825-11.105,7.646c-4.369,1.82-9.466,2.731-15.11,2.731c-3.823,0-7.282-0.364-10.376-1.274
					c-3.095-0.91-5.825-1.82-7.828-2.731v27.853h-18.568v-95.027c3.823-0.91,8.374-1.82,13.835-2.549
					c5.461-0.91,11.287-1.274,17.476-1.274c6.372,0,12.015,0.91,16.93,2.549c4.915,1.82,9.284,4.187,12.743,7.464
					c3.459,3.277,6.19,7.1,8.192,11.833C415.53,158.291,416.622,163.571,416.622,169.396z M397.507,169.578
					c0-7.464-1.82-13.107-5.643-17.294c-3.641-4.187-9.648-6.189-18.022-6.189c-1.82,0-3.459,0-5.461,0.182
					c-1.82,0.182-3.823,0.364-5.643,0.91v41.142c1.638,1.092,3.823,2.002,6.553,2.913s5.643,1.274,8.738,1.274
					c6.736,0,11.651-2.002,14.745-6.189C396.051,182.139,397.507,176.678,397.507,169.578z"/>
			</g>
		</g>
		<g>
			<g>
				<path style="fill:#999999;" d="M499.269,169.396c0,5.461-0.728,10.558-2.367,15.11c-1.638,4.551-3.823,8.556-6.736,11.833
					c-2.913,3.277-6.736,5.825-11.105,7.646c-4.369,1.82-9.466,2.731-15.11,2.731c-3.823,0-7.282-0.364-10.376-1.274
					c-3.095-0.91-5.825-1.82-7.828-2.731v27.853H427.18v-95.027c3.823-0.91,8.374-1.82,14.017-2.549
					c5.461-0.91,11.287-1.274,17.476-1.274c6.372,0,12.015,0.91,16.93,2.549c4.915,1.82,9.284,4.187,12.743,7.464
					c3.459,3.277,6.19,7.1,8.01,11.833C498.359,158.291,499.269,163.571,499.269,169.396z M480.337,169.578
					c0-7.464-1.82-13.107-5.643-17.294c-3.641-4.187-9.648-6.189-18.022-6.189c-1.638,0-3.459,0-5.461,0.182
					c-1.82,0.182-3.823,0.364-5.643,0.91v41.142c1.638,1.092,3.823,2.002,6.554,2.913s5.643,1.274,8.738,1.274
					c6.736,0,11.651-2.002,14.745-6.189C478.699,182.139,480.337,176.678,480.337,169.578z"/>
			</g>
		</g>
		<g>
			<g>
				<g>
					<path style="fill:#999999;" d="M508.372,169.578c0-6.372,1.092-11.833,3.095-16.566c2.002-4.733,4.915-8.738,8.374-11.833
						c3.459-3.095,7.464-5.643,12.015-7.1c4.551-1.638,9.102-2.367,13.835-2.367c11.105,0,19.661,3.095,25.85,9.284
						c6.19,6.189,9.284,15.292,9.284,27.489c0,0.91,0,2.002,0,3.095c0,1.092-0.182,2.185-0.182,3.095c-17.658,0-35.134,0-52.793,0
						c0.546,5.825,2.731,10.194,6.736,13.471c4.005,3.095,9.83,4.733,17.476,4.733c4.551,0,8.556-0.364,12.379-1.092
						c3.641-0.728,6.736-1.456,8.738-2.367c0.91,5.461,1.456,8.192,2.367,13.653c-1.092,0.546-2.367,0.91-4.187,1.456
						c-1.82,0.546-3.823,0.91-6.19,1.274c-2.185,0.364-4.733,0.728-7.464,1.092c-2.731,0.364-5.279,0.364-8.192,0.364
						c-7.1,0-13.107-0.91-18.386-2.731c-5.279-1.82-9.466-4.551-12.925-7.828c-3.277-3.277-5.825-7.282-7.464-11.833
						C509.282,179.954,508.372,175.039,508.372,169.578z M562.074,162.296c0-2.367-0.364-4.551-1.092-6.554
						c-0.728-2.002-1.82-3.823-3.095-5.279c-1.456-1.456-3.095-2.731-5.097-3.641s-4.369-1.274-7.1-1.274
						c-2.913,0-5.279,0.546-7.464,1.456c-2.185,0.91-4.005,2.185-5.461,3.823c-1.456,1.638-2.549,3.459-3.459,5.461
						c-0.728,2.002-1.456,4.005-1.638,6.189C541.504,162.296,548.239,162.296,562.074,162.296z"/>
				</g>
			</g>
			<g>
				<g>
					<path style="fill:#999999;" d="M617.416,155.379c6.736-8.738,10.194-13.289,16.93-22.027c7.828,0,11.651,0,19.479,0
						c-10.741,13.835-16.02,20.753-26.76,34.406c5.643,6.372,10.923,12.743,16.202,19.115c5.097,6.554,9.466,12.561,12.743,18.204
						c-8.01,0-12.015,0-20.207,0c-0.91-1.638-2.185-3.459-3.641-5.643c-1.456-2.002-3.095-4.187-4.733-6.372
						c-1.638-2.185-3.459-4.369-5.279-6.554s-4.733-6.007-5.279-6.007c-1.456,0-7.1,7.828-10.558,12.379
						c-3.459,4.551-6.19,8.556-8.556,12.015c-7.464,0-11.287,0-18.933,0c1.456-2.731,3.277-5.643,5.643-8.738
						c2.185-3.095,4.551-6.189,7.1-9.284c2.549-3.277,5.097-6.372,7.828-9.466c2.731-3.277,5.279-6.189,8.01-9.102
						c-10.923-14.017-16.384-21.117-27.125-35.134c8.192,0,12.197,0,20.389,0C607.221,142.089,610.68,146.458,617.416,155.379z"/>
				</g>
			</g>
		</g>
		<g>
			<g>
				<path style="fill:#999999;" d="M188.522,147.915"/>
			</g>
		</g>
		<g>
			<g>
				<path style="fill:#999999;" d="M59.026,247.519c-8.781,0-16.933-5.57-19.724-14.302L5.078,126.542
					c-1.76-5.175-1.377-10.776,1.112-15.704c2.513-4.984,6.849-8.67,12.203-10.381L143.451,60.23
					c11.208-3.341,22.608,2.606,26.085,13.487l10.739,33.681l-8.633,2.754l-10.739-33.681c-1.958-6.151-8.479-9.473-14.772-7.59
					L21.159,109.084c-3.038,0.97-5.478,3.038-6.886,5.83c-1.383,2.742-1.593,5.86-0.599,8.788l34.249,106.755
					c1.982,6.175,8.436,9.473,14.704,7.441l125.059-40.041c6.175-1.976,9.442-8.436,7.441-14.704l-10.739-33.866l8.633-2.742
					l10.739,33.86c3.483,10.912-2.489,22.614-13.314,26.073L65.387,246.524C63.269,247.197,61.132,247.519,59.026,247.519z"/>
			</g>
		</g>
		<g>
			<g>
				<path style="fill:#999999;" d="M148.632,164.459c-6.954,0-13.296-4.718-15.42-11.468l-5.095-16.21
					c-2.711-8.621,1.846-17.816,10.159-20.502l34.78-11.103c8.084-2.606,17.551,2.402,20.163,10.727l4.928,16.241
					c2.705,8.578-1.846,17.773-10.165,20.465l-34.595,11.103C151.849,164.206,150.25,164.459,148.632,164.459z M177.805,112.752
					c-0.747,0-1.488,0.117-2.205,0.352l-34.78,11.103c-3.958,1.284-6.101,5.805-4.761,10.078l5.095,16.204
					c1.291,4.063,5.755,6.583,9.683,5.292l34.595-11.103c3.965-1.284,6.107-5.805,4.761-10.072l-4.928-16.248
					C184.233,115.074,181.158,112.752,177.805,112.752z"/>
			</g>
		</g>
		<g>
			<g>
				<path style="fill:#999999;" d="M154.412,149.045c-5.175,0-9.757-3.31-11.394-8.238c-2.019-6.317,1.513-13.073,7.861-15.105
					c5.817-1.964,12.851,1.544,14.877,7.651c2.013,6.268-1.42,13.024-7.633,15.099C156.888,148.848,155.653,149.045,154.412,149.045
					z M154.461,132.013c-0.488,0-0.976,0.08-1.445,0.235c-2.81,0.902-4.31,3.718-3.446,6.422c0.84,2.569,3.742,4.057,6.41,3.236
					c2.612-0.877,4.076-3.755,3.23-6.41C158.531,133.465,156.573,132.013,154.461,132.013z"/>
			</g>
		</g>
		<g>
			<g>
				<path style="fill:#999999;" d="M200.718,53.98c2.185-0.546,4.733-1.274,7.1-1.82c-8.556-31.858-40.05-44.783-64.261-37.865
					c0.546,2.002,1.092,4.187,1.638,6.189c0.182,0.91,0.364,1.092,1.274,0.728c3.277-0.91,6.554-1.274,10.012-1.274
					c2.185,0,4.187,0.182,6.372,0.364c3.095,0.364,6.007,1.092,8.92,2.185c3.823,1.456,7.464,3.277,10.923,5.643
					c3.277,2.185,6.19,4.915,8.738,8.01c2.913,3.459,5.279,7.1,6.918,11.287C199.262,49.611,199.808,51.796,200.718,53.98z
					 M147.198,28.676c0.546,2.367,1.274,4.733,1.82,7.1c8.192-2.002,15.838-0.91,23.12,3.277s11.833,10.558,14.017,18.75
					c2.367-0.546,4.733-1.274,7.1-1.82C189.25,37.961,169.589,23.033,147.198,28.676z M171.774,61.444
					c2.367-0.546,4.551-1.092,6.736-1.82c0.182,0,0.364-0.364,0.364-0.546c-0.91-2.731-2.002-5.279-3.823-7.646
					c-1.82-2.367-4.005-4.369-6.554-5.825c-2.731-1.638-5.461-2.731-8.738-3.095c-1.82-0.182-3.823-0.182-5.825,0
					c-1.092,0-2.185,0.364-3.277,0.546c0.546,2.549,1.274,4.733,1.82,7.282c4.187-1.092,8.192-0.546,11.833,1.638
					C168.315,53.98,170.681,57.257,171.774,61.444z"/>
			</g>
		</g>
	</g>
</g>
<g id="Layer_1">
</g>
</svg>
