<?xml version="1.0" encoding="iso-8859-1"?>
<!-- Generator: Adobe Illustrator 18.1.1, SVG Export Plug-In . SVG Version: 6.00 Build 0)  -->
<svg version="1.1" xmlns="http://www.w3.org/2000/svg" xmlns:xlink="http://www.w3.org/1999/xlink" x="0px" y="0px"
	 viewBox="0 0 660 260" style="enable-background:new 0 0 660 260;" xml:space="preserve">
<g id="rippleexchangetokyo.logo">
	<g>
		<g>
			<path style="fill:#28568E;" d="M176.167,140.484l-15.737-15.736c9.557-9.557,14.82-22.258,14.82-35.764
				c0-13.515-5.263-26.22-14.819-35.777l15.736-15.736c13.76,13.759,21.338,32.054,21.338,51.512
				C197.504,108.434,189.926,126.723,176.167,140.484z"/>
		</g>
		<g>
			<path style="fill:#28568E;" d="M211.862,176.185l-15.731-15.742c19.094-19.081,29.609-44.459,29.609-71.459
				c0-27.009-10.515-52.391-29.609-71.473l15.731-15.741c23.301,23.285,36.133,54.258,36.133,87.214
				C247.995,121.931,235.163,152.9,211.862,176.185z"/>
		</g>
		<g>
			<path style="fill:#28568E;" d="M37.442,176.183c-23.29-23.291-36.117-54.258-36.117-87.198c0-32.949,12.827-63.921,36.117-87.211
				l15.736,15.736C34.091,36.596,23.579,61.98,23.579,88.984c0,26.995,10.512,52.375,29.599,71.462L37.442,176.183z"/>
		</g>
		<g>
			<path style="fill:#28568E;" d="M73.154,140.484c-13.76-13.759-21.338-32.049-21.338-51.5c0-19.46,7.578-37.754,21.338-51.513
				L88.89,53.208c-9.556,9.555-14.819,22.261-14.819,35.776c0,13.506,5.263,26.207,14.819,35.764L73.154,140.484z"/>
		</g>
		<g>
			<path style="fill:#28568E;" d="M73.154,140.484c-13.76-13.759-21.338-32.049-21.338-51.5c0-19.46,7.578-37.754,21.338-51.513
				L88.89,53.208c-9.556,9.555-14.819,22.261-14.819,35.776c0,13.506,5.263,26.207,14.819,35.764L73.154,140.484z"/>
		</g>
		<path style="fill:#28568E;" d="M130.309,112.625c4.441-1.059,8.41-3.33,11.532-6.453c4.399-4.398,7.121-10.486,7.121-17.188
			c0-6.716-2.723-12.803-7.121-17.201c-4.398-4.398-10.473-7.121-17.188-7.121c-6.716,0-12.79,2.723-17.188,7.121
			c-4.399,4.399-7.121,10.486-7.121,17.201c0,6.703,2.723,12.79,7.121,17.188c3.409,3.409,7.827,5.805,12.768,6.713
			c-13.703,58.834-30.463,96.335-66.224,145.344h1.777c13.131-8.718,41.378-13.082,69.638-13.082
			c28.261,0,56.51,4.364,69.641,13.082h1.344C159.461,212.665,143.402,172.17,130.309,112.625z M125.425,228.13
			c-11.238,0-22.091,0.628-32.125,1.842c13.331-22.413,23.31-44.428,31.64-70.001c7.677,25.019,17.199,47.492,30.558,69.761
			C143.578,228.412,132.617,228.13,125.425,228.13z"/>
		<g>
			<path style="fill:#28568E;" d="M329.998,70.362h-14.953l-11.337-18.983h-0.122v18.983h-12.012V21.007h17.956
				c9.132,0,16.057,4.648,16.057,15.186c0,6.807-3.555,12.699-10.112,13.942L329.998,70.362z M303.585,43.131h1.164
				c3.922,0,8.335-0.786,8.335-6.153s-4.412-6.153-8.335-6.153h-1.164V43.131z"/>
			<path style="fill:#28568E;" d="M346.051,23.887c0,3.665-2.819,6.676-6.251,6.676s-6.251-3.011-6.251-6.676
				c0-3.666,2.819-6.677,6.251-6.677S346.051,20.221,346.051,23.887z M345.378,70.362h-11.153v-33.58h11.153V70.362z"/>
			<path style="fill:#28568E;" d="M364.741,40.578h0.123c2.022-3.339,5.822-4.909,9.499-4.909c9.376,0,15.872,8.379,15.872,18
				c0,9.688-6.434,17.805-15.749,17.805c-3.616,0-7.354-1.375-9.745-4.32v19.965h-11.153V36.782h11.153V40.578z M364.373,53.605
				c0,4.255,2.635,7.528,7.171,7.528c4.534,0,7.17-3.273,7.17-7.528c0-4.124-2.635-7.593-7.17-7.593
				C367.009,46.012,364.373,49.481,364.373,53.605z"/>
			<path style="fill:#28568E;" d="M407.76,40.578h0.122c2.022-3.339,5.822-4.909,9.499-4.909c9.376,0,15.873,8.379,15.873,18
				c0,9.688-6.435,17.805-15.75,17.805c-3.616,0-7.354-1.375-9.744-4.32v19.965h-11.154V36.782h11.154V40.578z M407.392,53.605
				c0,4.255,2.635,7.528,7.171,7.528c4.534,0,7.17-3.273,7.17-7.528c0-4.124-2.635-7.593-7.17-7.593
				C410.027,46.012,407.392,49.481,407.392,53.605z"/>
			<path style="fill:#28568E;" d="M451.146,70.362h-11.154v-54.33h11.154V70.362z"/>
			<path style="fill:#28568E;" d="M492.019,55.568h-23.471c0,4.844,2.391,7.462,6.986,7.462c2.391,0,4.106-0.851,5.332-3.076h10.724
				c-0.858,3.928-3.064,6.808-5.945,8.706c-2.88,1.898-6.435,2.815-10.051,2.815c-10.418,0-18.201-6.284-18.201-17.87
				c0-11.193,7.169-17.935,17.404-17.935c10.909,0,17.22,7.2,17.22,18.655V55.568z M481.663,48.696
				c-0.552-3.208-3.31-5.302-6.313-5.302c-3.247,0-5.945,1.833-6.618,5.302H481.663z"/>
		</g>
		<g>
			<path style="fill:#28568E;" d="M336.869,116.918v8.248h13.543v10.866h-13.543v8.51h14.278v10.866h-26.29v-49.355h26.29v10.866
				H336.869z"/>
			<path style="fill:#28568E;" d="M357.887,121.828h14.156l5.638,6.939l5.638-6.939h14.402l-12.992,15.382l15.689,18.197H385.77
				l-8.09-9.95l-8.089,9.95h-14.647l15.689-18.197L357.887,121.828z"/>
			<path d="M427.073,132.759c-1.654-1.309-3.615-2.356-5.76-2.356c-4.29,0-7.66,3.535-7.66,8.182c0,4.844,3.248,8.248,7.844,8.248
				c1.961,0,4.106-0.851,5.576-2.291v10.08c-2.451,1.309-5.147,1.898-7.844,1.898c-9.315,0-17.098-7.397-17.098-17.543
				c0-10.801,7.722-18.263,17.588-18.263c2.574,0,5.148,0.655,7.354,1.964V132.759z"/>
			<path d="M446.375,101.077v25.005h0.123c2.573-3.666,5.699-5.367,10.049-5.367c7.967,0,11.828,5.629,11.828,14.138v20.554h-11.153
				v-17.216c0-3.927-0.552-7.986-5.025-7.986c-4.413,0-5.822,4.058-5.822,7.986v17.216h-11.154v-54.33H446.375z"/>
			<path d="M511.333,155.407h-11.153v-3.731h-0.123c-1.961,3.339-5.822,4.844-9.5,4.844c-9.314,0-15.871-8.313-15.871-17.935
				c0-9.622,6.434-17.87,15.749-17.87c3.617,0,7.416,1.44,9.745,4.386v-3.273h11.153V155.407z M486.208,138.65
				c0,4.255,2.635,7.528,7.171,7.528c4.534,0,7.169-3.273,7.169-7.528c0-4.124-2.635-7.593-7.169-7.593
				C488.842,131.057,486.208,134.526,486.208,138.65z"/>
			<path d="M531.125,126.147h0.123c2.573-4.058,5.699-5.433,10.049-5.433c8.458,0,11.828,5.695,11.828,13.942v20.75h-11.153v-16.365
				c0-3.207,0.49-8.836-5.025-8.836c-4.534,0-5.822,3.6-5.822,7.789v17.412h-11.154v-33.58h11.154V126.147z"/>
			<path d="M596.206,152.135c0,14.269-6.618,20.03-18.201,20.03c-7.232,0-16.914-3.992-17.895-12.83h12.501
				c0.307,1.179,1.103,2.029,2.084,2.553c0.981,0.523,2.145,0.786,3.187,0.786c6.006,0,7.169-4.189,7.169-9.622v-1.571
				c-2.88,3.076-5.822,4.582-9.988,4.582c-9.193,0-15.506-7.462-15.506-17.15c0-9.819,6.497-18.197,16.118-18.197
				c3.677,0,7.048,1.309,9.254,4.648h0.121v-3.535h11.154V152.135z M571.081,138.388c0,4.255,2.635,7.528,7.169,7.528
				c4.536,0,7.171-3.273,7.171-7.528c0-4.123-2.635-7.593-7.171-7.593C573.715,130.795,571.081,134.265,571.081,138.388z"/>
			<path d="M636.711,140.614H613.24c0,4.844,2.391,7.462,6.986,7.462c2.391,0,4.106-0.851,5.332-3.076h10.724
				c-0.858,3.928-3.064,6.808-5.945,8.706c-2.88,1.898-6.435,2.815-10.051,2.815c-10.418,0-18.201-6.284-18.201-17.87
				c0-11.193,7.169-17.935,17.404-17.935c10.909,0,17.22,7.2,17.22,18.655V140.614z M626.355,133.741
				c-0.552-3.208-3.31-5.302-6.313-5.302c-3.247,0-5.945,1.833-6.618,5.302H626.355z"/>
		</g>
		<g>
			<path d="M485.925,238.976h-12.012v-38.489h-9.928v-10.866h31.868v10.866h-9.928V238.976z"/>
			<path d="M532.193,222.219c0,11.389-8.825,17.869-18.937,17.869c-10.049,0-18.936-6.414-18.936-17.869
				c0-11.456,8.825-17.936,18.936-17.936C523.368,204.283,532.193,210.763,532.193,222.219z M506.087,222.219
				c0,4.255,2.635,7.527,7.169,7.527c4.536,0,7.171-3.273,7.171-7.527c0-4.124-2.635-7.594-7.171-7.594
				C508.722,214.625,506.087,218.095,506.087,222.219z"/>
			<path d="M549.596,217.505l11.582-12.109h15.26l-15.75,15.513l16.729,18.066H561.79l-12.195-13.68v13.68h-11.154v-54.331h11.154
				V217.505z"/>
			<path d="M577.231,205.396h12.87l8.395,17.215l8.212-17.215h12.686l-25.187,50.337h-12.503l10.724-21.339L577.231,205.396z"/>
			<path d="M658.675,222.219c0,11.389-8.825,17.869-18.937,17.869c-10.049,0-18.936-6.414-18.936-17.869
				c0-11.456,8.825-17.936,18.936-17.936C649.85,204.283,658.675,210.763,658.675,222.219z M632.569,222.219
				c0,4.255,2.635,7.527,7.169,7.527c4.536,0,7.171-3.273,7.171-7.527c0-4.124-2.635-7.594-7.171-7.594
				C635.204,214.625,632.569,218.095,632.569,222.219z"/>
		</g>
	</g>
</g>
<g id="Layer_1">
</g>
</svg>
