<?xml version="1.0" encoding="iso-8859-1"?>
<!-- Generator: Adobe Illustrator 18.1.1, SVG Export Plug-In . SVG Version: 6.00 Build 0)  -->
<svg version="1.1" xmlns="http://www.w3.org/2000/svg" xmlns:xlink="http://www.w3.org/1999/xlink" x="0px" y="0px"
	 viewBox="0 0 660 260" style="enable-background:new 0 0 660 260;" xml:space="preserve">
<g id="rippleexchangetokyo.logo.grayscale">
	<g>
		<path style="fill:#999999;" d="M176.167,140.484c13.759-13.761,21.337-32.05,21.337-51.5c0-19.458-7.578-37.753-21.338-51.512
			L160.43,53.208c9.556,9.557,14.819,22.262,14.819,35.777c0,13.506-5.263,26.207-14.82,35.764L176.167,140.484z"/>
		<path style="fill:#999999;" d="M196.132,17.512c19.094,19.081,29.609,44.464,29.609,71.473c0,27-10.515,52.378-29.609,71.459
			l15.731,15.742c23.301-23.285,36.133-54.254,36.133-87.201c0-32.956-12.832-63.929-36.133-87.214L196.132,17.512z"/>
		<path style="fill:#999999;" d="M141.842,106.173c4.399-4.398,7.121-10.486,7.121-17.188c0-6.716-2.723-12.803-7.121-17.201
			c-4.398-4.398-10.473-7.121-17.188-7.121c-6.716,0-12.79,2.723-17.188,7.121c-4.399,4.399-7.121,10.486-7.121,17.201
			c0,6.703,2.723,12.79,7.121,17.188c3.409,3.409,7.827,5.805,12.768,6.713c-13.703,58.834-30.463,96.335-66.224,145.344h1.777
			c13.131-8.718,41.378-13.082,69.638-13.082c28.261,0,56.51,4.364,69.641,13.082h1.344c-36.948-45.565-53.008-86.059-66.1-145.604
			C134.75,111.566,138.719,109.295,141.842,106.173z M125.425,228.13c-11.238,0-22.091,0.628-32.125,1.842
			c13.331-22.413,23.31-44.428,31.64-70.001c7.677,25.019,17.199,47.492,30.558,69.761
			C143.578,228.412,132.617,228.13,125.425,228.13z"/>
		<path style="fill:#999999;" d="M53.178,17.509L37.442,1.773C14.152,25.064,1.325,56.036,1.325,88.984
			c0,32.94,12.827,63.907,36.117,87.198l15.736-15.736c-19.087-19.087-29.599-44.466-29.599-71.462
			C23.579,61.98,34.091,36.596,53.178,17.509z"/>
		<path style="fill:#999999;" d="M73.154,140.484l15.736-15.736c-9.556-9.557-14.819-22.258-14.819-35.764
			c0-13.515,5.263-26.221,14.819-35.776L73.154,37.471c-13.76,13.759-21.338,32.053-21.338,51.513
			C51.817,108.435,59.394,126.725,73.154,140.484z"/>
		<path style="fill:#999999;" d="M315.473,50.135c6.557-1.243,10.112-7.135,10.112-13.942c0-10.538-6.925-15.186-16.057-15.186
			h-17.956v49.355h12.012V51.379h0.122l11.338,18.983h14.953L315.473,50.135z M304.749,43.131h-1.164V30.826h1.164
			c3.922,0,8.335,0.786,8.335,6.153C313.083,42.346,308.671,43.131,304.749,43.131z"/>
		<rect x="334.224" y="36.782" style="fill:#999999;" width="11.153" height="33.58"/>
		<path style="fill:#999999;" d="M339.801,30.563c3.432,0,6.251-3.011,6.251-6.676c0-3.666-2.819-6.677-6.251-6.677
			c-3.432,0-6.251,3.011-6.251,6.677C333.55,27.552,336.369,30.563,339.801,30.563z"/>
		<path style="fill:#999999;" d="M364.741,67.154c2.391,2.945,6.129,4.32,9.745,4.32c9.315,0,15.749-8.117,15.749-17.805
			c0-9.622-6.496-18-15.872-18c-3.677,0-7.477,1.571-9.499,4.909h-0.123v-3.796h-11.153v50.337h11.153V67.154z M371.544,46.012
			c4.534,0,7.17,3.469,7.17,7.593c0,4.255-2.635,7.528-7.17,7.528c-4.535,0-7.171-3.273-7.171-7.528
			C364.373,49.481,367.009,46.012,371.544,46.012z"/>
		<path style="fill:#999999;" d="M417.381,35.669c-3.677,0-7.477,1.571-9.499,4.909h-0.122v-3.796h-11.154v50.337h11.154V67.154
			c2.39,2.945,6.128,4.32,9.744,4.32c9.315,0,15.75-8.117,15.75-17.805C433.254,44.048,426.758,35.669,417.381,35.669z
			 M414.562,61.133c-4.535,0-7.171-3.273-7.171-7.528c0-4.124,2.635-7.593,7.171-7.593c4.534,0,7.17,3.469,7.17,7.593
			C421.732,57.859,419.097,61.133,414.562,61.133z"/>
		<rect x="439.992" y="16.032" style="fill:#999999;" width="11.154" height="54.33"/>
		<path style="fill:#999999;" d="M475.596,71.475c3.615,0,7.171-0.917,10.051-2.815c2.88-1.898,5.087-4.778,5.945-8.706h-10.724
			c-1.226,2.226-2.942,3.076-5.332,3.076c-4.596,0-6.986-2.618-6.986-7.462h23.471v-1.244c0-11.455-6.311-18.655-17.22-18.655
			c-10.235,0-17.404,6.742-17.404,17.935C457.395,65.191,465.178,71.475,475.596,71.475z M475.35,43.393
			c3.003,0,5.76,2.095,6.313,5.302h-12.931C469.406,45.226,472.103,43.393,475.35,43.393z"/>
		<polygon style="fill:#999999;" points="324.857,155.407 351.148,155.407 351.148,144.542 336.869,144.542 336.869,136.032 
			350.412,136.032 350.412,125.166 336.869,125.166 336.869,116.918 351.148,116.918 351.148,106.052 324.857,106.052 		"/>
		<polygon style="fill:#999999;" points="397.721,121.828 383.319,121.828 377.681,128.766 372.043,121.828 357.887,121.828 
			370.634,137.21 354.945,155.407 369.592,155.407 377.681,145.458 385.77,155.407 400.417,155.407 384.729,137.21 		"/>
		<path style="fill:#999999;" d="M402.131,138.977c0,10.146,7.783,17.543,17.098,17.543c2.697,0,5.393-0.589,7.844-1.898v-10.08
			c-1.471,1.44-3.615,2.291-5.576,2.291c-4.596,0-7.844-3.404-7.844-8.248c0-4.648,3.37-8.182,7.66-8.182
			c2.145,0,4.106,1.047,5.76,2.356v-10.08c-2.206-1.309-4.78-1.964-7.354-1.964C409.852,120.715,402.131,128.177,402.131,138.977z"
			/>
		<path style="fill:#999999;" d="M468.375,155.407v-20.554c0-8.509-3.861-14.138-11.828-14.138c-4.35,0-7.476,1.702-10.049,5.367
			h-0.123v-25.005h-11.154v54.33h11.154v-17.216c0-3.927,1.409-7.986,5.822-7.986c4.473,0,5.025,4.058,5.025,7.986v17.216H468.375z"
			/>
		<path style="fill:#999999;" d="M474.687,138.585c0,9.622,6.557,17.935,15.871,17.935c3.678,0,7.539-1.505,9.5-4.844h0.123v3.731
			h11.153v-33.58h-11.153v3.273c-2.329-2.945-6.129-4.386-9.745-4.386C481.121,120.715,474.687,128.962,474.687,138.585z
			 M500.547,138.65c0,4.255-2.635,7.528-7.169,7.528c-4.536,0-7.171-3.273-7.171-7.528c0-4.124,2.635-7.593,7.171-7.593
			C497.913,131.057,500.547,134.526,500.547,138.65z"/>
		<path style="fill:#999999;" d="M541.973,139.043v16.365h11.153v-20.75c0-8.248-3.37-13.942-11.828-13.942
			c-4.35,0-7.476,1.374-10.049,5.433h-0.123v-4.32h-11.154v33.58h11.154v-17.412c0-4.189,1.287-7.789,5.822-7.789
			C542.462,130.206,541.973,135.836,541.973,139.043z"/>
		<path style="fill:#999999;" d="M575.064,156.062c4.166,0,7.108-1.505,9.988-4.582v1.571c0,5.433-1.163,9.622-7.169,9.622
			c-1.042,0-2.206-0.262-3.187-0.786s-1.777-1.374-2.084-2.553h-12.501c0.981,8.838,10.663,12.83,17.895,12.83
			c11.582,0,18.201-5.76,18.201-20.03v-30.307h-11.154v3.535h-0.121c-2.207-3.339-5.578-4.648-9.254-4.648
			c-9.621,0-16.118,8.379-16.118,18.197C559.558,148.6,565.871,156.062,575.064,156.062z M578.25,130.795
			c4.536,0,7.171,3.47,7.171,7.593c0,4.255-2.635,7.528-7.171,7.528c-4.534,0-7.169-3.273-7.169-7.528
			C571.081,134.265,573.715,130.795,578.25,130.795z"/>
		<path style="fill:#999999;" d="M636.283,144.999h-10.724c-1.226,2.226-2.942,3.076-5.332,3.076c-4.596,0-6.986-2.618-6.986-7.462
			h23.471v-1.244c0-11.455-6.311-18.655-17.22-18.655c-10.235,0-17.404,6.742-17.404,17.935c0,11.586,7.783,17.87,18.201,17.87
			c3.615,0,7.171-0.917,10.051-2.815C633.218,151.807,635.425,148.927,636.283,144.999z M620.042,128.439
			c3.003,0,5.76,2.095,6.313,5.302h-12.931C614.097,130.271,616.795,128.439,620.042,128.439z"/>
		<polygon style="fill:#999999;" points="495.853,189.621 463.985,189.621 463.985,200.487 473.913,200.487 473.913,238.976 
			485.925,238.976 485.925,200.487 495.853,200.487 		"/>
		<path style="fill:#999999;" d="M513.256,204.283c-10.111,0-18.936,6.48-18.936,17.936c0,11.456,8.886,17.869,18.936,17.869
			c10.112,0,18.937-6.48,18.937-17.869C532.193,210.763,523.368,204.283,513.256,204.283z M513.256,229.746
			c-4.534,0-7.169-3.273-7.169-7.527c0-4.124,2.635-7.594,7.169-7.594c4.536,0,7.171,3.47,7.171,7.594
			C520.427,226.473,517.792,229.746,513.256,229.746z"/>
		<polygon style="fill:#999999;" points="576.438,205.396 561.178,205.396 549.596,217.505 549.596,184.646 538.442,184.646 
			538.442,238.976 549.596,238.976 549.596,225.296 561.79,238.976 577.418,238.976 560.688,220.91 		"/>
		<polygon style="fill:#999999;" points="598.496,222.611 590.101,205.396 577.231,205.396 592.429,234.394 581.704,255.733 
			594.207,255.733 619.394,205.396 606.708,205.396 		"/>
		<path style="fill:#999999;" d="M639.738,204.283c-10.111,0-18.936,6.48-18.936,17.936c0,11.456,8.886,17.869,18.936,17.869
			c10.112,0,18.937-6.48,18.937-17.869C658.675,210.763,649.85,204.283,639.738,204.283z M639.738,229.746
			c-4.534,0-7.169-3.273-7.169-7.527c0-4.124,2.635-7.594,7.169-7.594c4.536,0,7.171,3.47,7.171,7.594
			C646.909,226.473,644.274,229.746,639.738,229.746z"/>
	</g>
</g>
<g id="Layer_1">
</g>
</svg>
