<?xml version="1.0" encoding="iso-8859-1"?>
<!-- Generator: Adobe Illustrator 18.1.1, SVG Export Plug-In . SVG Version: 6.00 Build 0)  -->
<svg version="1.1" xmlns="http://www.w3.org/2000/svg" xmlns:xlink="http://www.w3.org/1999/xlink" x="0px" y="0px"
	 viewBox="0 0 660 260" style="enable-background:new 0 0 660 260;" xml:space="preserve">
<g id="snapswap.logo.grayscale">
	<g>
		<path style="fill:#999999;" d="M425.549,51.479c-2.088,8.354-2.924,11.8-3.133,12.949
			C413.958,59.311,417.404,51.792,425.549,51.479z"/>
		<path style="fill:#999999;" d="M428.891,38.009l0.627-1.149h0.105C429.413,37.278,429.1,37.695,428.891,38.009z"/>
		<path style="fill:#999999;" d="M428.473,103.692c0.313-2.193,2.715-14.828,2.82-15.455
			C444.242,95.025,437.976,103.692,428.473,103.692z"/>
		<path style="fill:#999999;" d="M425.341,2.399c-41.039,0-74.351,33.312-74.351,74.351s33.312,74.247,74.351,74.247
			s74.247-33.207,74.247-74.247S466.38,2.399,425.341,2.399z M455.833,98.784c-1.253,6.683-4.595,12.114-10.025,15.664
			c0,0-1.253,0.731-1.253,0.836v-0.105c-4.908,2.82-11.174,4.073-18.901,3.446l-1.253-0.94c-12.009,41.562-18.483,41.04-12.113-1.88
			c-10.652-3.55-17.962-9.502-22.869-16.603l11.487-11.174c3.029,4.699,7.727,9.399,13.993,12.427
			c1.044-5.743,2.193-11.8,3.55-18.065c-10.651-5.117-20.99-12.114-18.275-26.838c2.193-11.8,13.367-20.05,29.344-18.693
			c5.639-19.528,10.756-32.267,13.367-31.641c2.506,0.522,1.88,14.202-1.253,34.46c8.668,2.82,15.664,7.727,20.676,14.306
			l-11.591,10.652c-3.133-4.177-7.205-7.414-11.696-9.608c-0.94,5.117-1.984,10.443-3.133,15.873
			C447.061,76.228,458.653,83.329,455.833,98.784z"/>
		<g>
			<g style="enable-background:new    ;">
				<g>
					<path style="fill:#999999;" d="M43.581,139.472l10.493-13.153c4.286,5.024,14.631,11.231,24.977,11.231
						c6.355,0,10.345-3.399,10.345-7.389c0-9.606-36.357-7.242-36.357-28.671c0-12.415,10.345-24.09,29.41-24.09
						c12.119,0,23.499,4.581,30.297,11.528l-9.754,12.562c-3.4-4.433-12.267-9.31-20.986-9.31c-6.65,0-10.345,2.955-10.345,6.65
						c0,8.72,36.357,6.799,36.357,28.524c0,13.597-11.38,24.977-30.888,24.977C64.124,152.329,51.562,147.895,43.581,139.472z"/>
				</g>
				<g>
					<path style="fill:#999999;" d="M160.186,150.555l9.606-43.303c0.295-1.33,0.591-2.808,0.591-4.137
						c0-6.504-5.321-9.016-12.266-9.016c-6.355,0-12.562,4.286-16.7,8.276l-10.641,48.18h-18.769l15.813-71.383h18.769l-2.069,9.163
						c5.616-5.32,13.301-10.937,23.794-10.937c13.744,0,22.316,7.094,22.316,18.179c0,1.33-0.443,4.433-0.739,5.911l-10.788,49.067
						H160.186z"/>
				</g>
			</g>
			<g style="enable-background:new    ;">
				<g>
					<path style="fill:#999999;" d="M251.775,88.631l1.921-9.459h18.917l-15.814,71.383h-18.917l2.069-8.867
						c-6.06,7.094-12.858,10.641-21.43,10.641c-16.109,0-27.193-10.641-27.193-29.558c0-21.578,13.449-45.372,37.686-45.372
						C238.621,77.399,247.045,81.538,251.775,88.631z M210.985,118.928c0,10.198,6.799,16.701,15.814,16.701
						c6.65,0,12.562-3.695,16.404-8.572l5.468-24.681c-3.103-4.877-9.163-8.276-16.7-8.276
						C219.704,94.1,210.985,105.775,210.985,118.928z"/>
				</g>
			</g>
			<g style="enable-background:new    ;">
				<g>
					<path style="fill:#999999;" d="M286.656,141.097l-8.128,36.652h-18.769l21.873-98.576H300.4l-2.069,8.867
						c6.06-7.094,13.005-10.641,21.577-10.641c16.109,0,27.046,10.641,27.046,29.558c0,21.429-13.302,45.372-37.539,45.372
						C299.809,152.329,291.385,148.191,286.656,141.097z M327.298,110.8c0-10.198-6.651-16.701-15.814-16.701
						c-6.503,0-12.414,3.695-16.257,8.572l-5.616,24.681c3.103,4.877,9.163,8.276,16.7,8.276
						C318.726,135.629,327.298,123.953,327.298,110.8z"/>
				</g>
			</g>
			<g style="enable-background:new    ;">
				<g>
					<path style="fill:#999999;" d="M276.099,219.324l10.493-13.153c4.286,5.024,14.631,11.231,24.977,11.231
						c6.355,0,10.345-3.399,10.345-7.389c0-9.606-36.357-7.242-36.357-28.671c0-12.415,10.345-24.09,29.41-24.09
						c12.119,0,23.499,4.581,30.297,11.528l-9.754,12.562c-3.4-4.433-12.267-9.31-20.986-9.31c-6.65,0-10.345,2.955-10.345,6.65
						c0,8.72,36.357,6.799,36.357,28.524c0,13.597-11.38,24.977-30.888,24.977C296.642,232.181,284.08,227.747,276.099,219.324z"/>
				</g>
				<g>
					<path style="fill:#999999;" d="M409.551,230.408l-4.434-48.623l-25.715,48.623h-20.1l-5.912-71.383h18.917l2.661,48.031
						l26.306-48.031h16.701l4.877,48.031l24.09-48.031h20.247l-37.539,71.383H409.551z"/>
				</g>
			</g>
			<g style="enable-background:new    ;">
				<g>
					<path style="fill:#999999;" d="M518.361,168.483l1.922-9.459H539.2l-15.814,71.383H504.47l2.069-8.867
						c-6.06,7.094-12.858,10.641-21.43,10.641c-16.108,0-27.193-10.641-27.193-29.558c0-21.578,13.449-45.372,37.687-45.372
						C505.208,157.251,513.633,161.39,518.361,168.483z M477.572,198.78c0,10.198,6.798,16.701,15.814,16.701
						c6.65,0,12.562-3.695,16.404-8.572l5.468-24.681c-3.103-4.877-9.163-8.276-16.699-8.276
						C486.291,173.952,477.572,185.627,477.572,198.78z"/>
				</g>
			</g>
			<g style="enable-background:new    ;">
				<g>
					<path style="fill:#999999;" d="M556.12,220.949l-8.128,36.652h-18.769l21.873-98.576h18.769l-2.069,8.867
						c6.06-7.094,13.005-10.641,21.577-10.641c16.109,0,27.046,10.641,27.046,29.558c0,21.429-13.302,45.372-37.539,45.372
						C569.274,232.181,560.849,228.043,556.12,220.949z M596.763,190.652c0-10.198-6.651-16.701-15.814-16.701
						c-6.503,0-12.414,3.695-16.257,8.572l-5.616,24.681c3.103,4.877,9.163,8.276,16.7,8.276
						C588.191,215.481,596.763,203.806,596.763,190.652z"/>
				</g>
			</g>
		</g>
	</g>
</g>
<g id="Layer_1">
</g>
</svg>
