<?xml version="1.0" encoding="iso-8859-1"?>
<!-- Generator: Adobe Illustrator 18.1.1, SVG Export Plug-In . SVG Version: 6.00 Build 0)  -->
<svg version="1.1" xmlns="http://www.w3.org/2000/svg" xmlns:xlink="http://www.w3.org/1999/xlink" x="0px" y="0px"
	 viewBox="0 0 660 260" style="enable-background:new 0 0 660 260;" xml:space="preserve">
<g id="snapswap.logo">
	<g>
		<g>
			<g style="enable-background:new    ;">
				<path style="fill:#5F7D87;" d="M43.201,139.46l10.507-13.171c4.292,5.031,14.651,11.246,25.01,11.246
					c6.363,0,10.359-3.404,10.359-7.399c0-9.619-36.405-7.252-36.405-28.709c0-12.431,10.359-24.122,29.449-24.122
					c12.135,0,23.53,4.588,30.337,11.543l-9.767,12.579c-3.404-4.439-12.283-9.323-21.014-9.323c-6.659,0-10.359,2.959-10.359,6.658
					c0,8.732,36.405,6.808,36.405,28.562c0,13.615-11.395,25.01-30.929,25.01C63.772,152.335,51.193,147.895,43.201,139.46z"/>
				<path style="fill:#5F7D87;" d="M159.96,150.559l9.619-43.36c0.295-1.331,0.591-2.812,0.591-4.143
					c0-6.512-5.328-9.028-12.283-9.028c-6.364,0-12.579,4.292-16.722,8.287l-10.655,48.244h-18.794l15.834-71.477h18.794
					l-2.071,9.175c5.624-5.327,13.319-10.951,23.826-10.951c13.763,0,22.346,7.103,22.346,18.203c0,1.331-0.444,4.439-0.74,5.919
					l-10.803,49.132H159.96z"/>
			</g>
			<g style="enable-background:new    ;">
				<path style="fill:#5F7D87;" d="M251.671,88.553l1.924-9.471h18.942l-15.835,71.477H237.76l2.072-8.879
					c-6.068,7.103-12.875,10.655-21.458,10.655c-16.13,0-27.229-10.655-27.229-29.597c0-21.606,13.467-45.432,37.736-45.432
					C238.5,77.306,246.935,81.45,251.671,88.553z M210.827,118.889c0,10.212,6.808,16.723,15.835,16.723
					c6.659,0,12.579-3.7,16.426-8.583l5.476-24.714c-3.108-4.884-9.175-8.287-16.722-8.287
					C219.558,94.028,210.827,105.719,210.827,118.889z"/>
			</g>
			<g style="enable-background:new    ;">
				<path style="fill:#5F7D87;" d="M286.598,141.088l-8.139,36.7h-18.794l21.902-98.707h18.794l-2.071,8.879
					c6.068-7.103,13.023-10.655,21.606-10.655c16.131,0,27.082,10.655,27.082,29.597c0,21.458-13.319,45.432-37.589,45.432
					C299.769,152.335,291.334,148.191,286.598,141.088z M327.295,110.751c0-10.212-6.66-16.723-15.835-16.723
					c-6.512,0-12.431,3.7-16.278,8.583l-5.624,24.714c3.108,4.884,9.175,8.287,16.722,8.287
					C318.711,135.612,327.295,123.922,327.295,110.751z"/>
			</g>
			<g>
				<circle style="opacity:0.2;fill:#FAB21C;enable-background:new    ;" cx="425.441" cy="76.245" r="73.991"/>
				
					<ellipse transform="matrix(-0.9778 -0.2093 0.2093 -0.9778 825.4146 240.9801)" style="opacity:0.4;fill:#FAB21C;enable-background:new    ;" cx="425.458" cy="76.814" rx="59.236" ry="73.988"/>
				
					<ellipse transform="matrix(-0.9778 -0.2093 0.2093 -0.9778 825.405 240.9793)" style="opacity:0.6;fill:#FAB21C;enable-background:new    ;" cx="425.454" cy="76.814" rx="44.37" ry="73.988"/>
				
					<ellipse transform="matrix(-0.9778 -0.2093 0.2093 -0.9778 825.3949 240.9782)" style="opacity:0.8;fill:#FAB21C;enable-background:new    ;" cx="425.448" cy="76.814" rx="29.618" ry="73.988"/>
				
					<ellipse transform="matrix(-0.9778 -0.2093 0.2093 -0.9778 825.3997 240.9786)" style="fill:#FAB21C;" cx="425.451" cy="76.814" rx="14.751" ry="73.988"/>
				
					<linearGradient id="SVGID_1_" gradientUnits="userSpaceOnUse" x1="333.457" y1="-477.447" x2="481.4645" y2="-477.447" gradientTransform="matrix(0.9774 0.2116 -0.2116 0.9774 -73.8393 457.4901)">
					<stop  offset="0" style="stop-color:#FAB21C;stop-opacity:0.1"/>
					<stop  offset="0.5" style="stop-color:#FAB21C"/>
					<stop  offset="1" style="stop-color:#FAB21C;stop-opacity:0.1"/>
				</linearGradient>
				<circle style="fill:url(#SVGID_1_);" cx="425.441" cy="77.052" r="73.991"/>
			</g>
			<g style="enable-background:new    ;">
				<path style="fill:#5F7D87;" d="M276.027,219.418l10.507-13.171c4.292,5.031,14.651,11.246,25.01,11.246
					c6.363,0,10.359-3.404,10.359-7.399c0-9.619-36.405-7.252-36.405-28.709c0-12.431,10.359-24.122,29.449-24.122
					c12.135,0,23.53,4.588,30.337,11.543l-9.767,12.579c-3.404-4.439-12.283-9.323-21.014-9.323c-6.659,0-10.359,2.959-10.359,6.658
					c0,8.732,36.405,6.808,36.405,28.562c0,13.615-11.395,25.01-30.929,25.01C296.598,232.293,284.019,227.853,276.027,219.418z"/>
				<path style="fill:#5F7D87;" d="M409.657,230.517l-4.44-48.687l-25.749,48.687h-20.126l-5.92-71.477h18.942l2.664,48.095
					l26.341-48.095h16.723l4.884,48.095l24.122-48.095h20.274l-37.588,71.477H409.657z"/>
			</g>
			<g style="enable-background:new    ;">
				<path style="fill:#5F7D87;" d="M518.611,168.511l1.925-9.471h18.942l-15.835,71.477h-18.942l2.072-8.879
					c-6.068,7.103-12.875,10.655-21.459,10.655c-16.13,0-27.229-10.655-27.229-29.597c0-21.606,13.467-45.432,37.737-45.432
					C505.44,157.264,513.876,161.408,518.611,168.511z M477.768,198.847c0,10.212,6.807,16.723,15.835,16.723
					c6.658,0,12.579-3.7,16.426-8.583l5.476-24.714c-3.107-4.884-9.175-8.287-16.722-8.287
					C486.498,173.986,477.768,185.677,477.768,198.847z"/>
			</g>
			<g style="enable-background:new    ;">
				<path style="fill:#5F7D87;" d="M556.42,221.046l-8.139,36.7h-18.794l21.902-98.707h18.794l-2.072,8.879
					c6.068-7.103,13.023-10.655,21.606-10.655c16.131,0,27.082,10.655,27.082,29.597c0,21.458-13.319,45.432-37.589,45.432
					C569.591,232.293,561.155,228.149,556.42,221.046z M597.116,190.709c0-10.212-6.66-16.723-15.835-16.723
					c-6.512,0-12.431,3.7-16.278,8.583l-5.624,24.714c3.108,4.884,9.175,8.287,16.722,8.287
					C588.533,215.57,597.116,203.88,597.116,190.709z"/>
			</g>
			<g>
				<path style="fill:#FFFFFF;" d="M429.67,36.714c-0.012,0.035-0.023,0.069-0.035,0.115l0.069-0.115H429.67z"/>
			</g>
			<path style="fill:#FFFFFF;" d="M429.705,36.714l-0.069,0.115c0.012-0.046,0.023-0.081,0.035-0.115H429.705z"/>
		</g>
		<path style="fill:#FFFFFF;" d="M436.044,70.84c1.153-5.509,2.201-10.857,3.135-15.951c4.437,2.201,8.609,5.428,11.733,9.6
			l11.525-10.603c-4.967-6.627-11.952-11.56-20.653-14.395c3.1-20.227,3.757-33.93,1.199-34.495
			c-2.547-0.565-7.676,12.124-13.312,31.717h0.035c-5.931,9.882-0.046,0.035-0.035,0c-15.997-1.371-27.165,6.927-29.354,18.671
			c-2.789,14.775,7.56,21.794,18.198,26.877c-1.302,6.281-2.489,12.343-3.527,18.083c-6.201-3.02-10.937-7.676-13.98-12.343
			L389.482,99.18c4.944,7.088,12.274,13.07,22.958,16.562c-6.397,43.028,0.06,43.505,12.113,1.936l1.233,0.864
			c7.699,0.668,14.026-0.611,18.89-3.365l0.012,0.023c0.042-0.023,1.276-0.791,1.302-0.83c5.371-3.515,8.736-8.978,9.992-15.651
			C458.864,83.287,447.212,76.095,436.044,70.84z M422.502,64.328c-8.462-5.14-4.97-12.662,3.181-12.977
			C423.552,59.708,422.79,63.176,422.502,64.328z M428.552,103.675c0.417-2.283,2.748-14.893,2.881-15.559
			C444.403,94.91,438.117,103.675,428.552,103.675z"/>
	</g>
</g>
<g id="Layer_1">
</g>
</svg>
