<?xml version="1.0" encoding="iso-8859-1"?>
<!-- Generator: Adobe Illustrator 18.1.1, SVG Export Plug-In . SVG Version: 6.00 Build 0)  -->
<svg version="1.1" xmlns="http://www.w3.org/2000/svg" xmlns:xlink="http://www.w3.org/1999/xlink" x="0px" y="0px"
	 viewBox="0 0 660 260" style="enable-background:new 0 0 660 260;" xml:space="preserve">
<g id="jpytokyo.logo">
	<g>
		<g>
			<g>
				<polygon points="2.558,91.986 58.283,91.986 105.359,168.014 				"/>
				<polygon points="77.205,91.986 122.902,168.014 178.596,168.014 				"/>
			</g>
		</g>
		<g>
			<path d="M198.378,159.503v-48.735h-17.536V99.531h47.837v11.238h-17.443v48.735H198.378z"/>
			<path d="M231.799,129.566c0-18.079,13.217-31.025,31.379-31.025c18.074,0,31.291,12.945,31.291,31.025
				c0,18.069-13.217,31.015-31.291,31.015C245.016,160.58,231.799,147.635,231.799,129.566z M281.344,129.566
				c0-11.247-7.104-19.7-18.166-19.7c-11.145,0-18.249,8.452-18.249,19.7c0,11.14,7.104,19.69,18.249,19.69
				C274.241,149.255,281.344,140.706,281.344,129.566z"/>
			<path d="M339.031,159.503l-18.162-24.096l-4.677,5.667v18.428h-12.766V99.531h12.766v26.706l21.223-26.706h15.735l-23.829,28.142
				l25.445,31.83H339.031z"/>
			<path d="M376.315,159.503v-24.552l-23.018-35.421h14.566l14.838,24.008l14.833-24.008h14.479l-22.931,35.421v24.552H376.315z"/>
			<path d="M411.085,129.566c0-18.079,13.217-31.025,31.379-31.025c18.074,0,31.291,12.945,31.291,31.025
				c0,18.069-13.217,31.015-31.291,31.015C424.302,160.58,411.085,147.635,411.085,129.566z M460.63,129.566
				c0-11.247-7.104-19.7-18.166-19.7c-11.145,0-18.249,8.452-18.249,19.7c0,11.14,7.104,19.69,18.249,19.69
				C453.527,149.255,460.63,140.706,460.63,129.566z"/>
			<path d="M500.413,154.651l5.575-9.714c2.339,2.251,5.396,4.318,9.53,4.318c5.667,0,9.355-3.872,9.355-9.627V99.531h12.858v40.282
				c0,14.12-8.904,20.767-21.131,20.767C510.486,160.58,504.731,158.872,500.413,154.651z"/>
			<path d="M549.482,159.503V99.531h28.055c13.038,0,20.141,8.811,20.141,19.331c0,10.432-7.196,19.244-20.141,19.244h-15.284
				v21.398H549.482z M584.641,118.862c0-5.037-3.867-8.093-8.904-8.093h-13.484v16.099h13.484
				C580.774,126.868,584.641,123.811,584.641,118.862z"/>
			<path d="M621.745,159.503v-24.552l-23.018-35.421h14.566l14.838,24.008l14.833-24.008h14.479l-22.931,35.421v24.552H621.745z"/>
		</g>
	</g>
</g>
<g id="Layer_1">
</g>
</svg>
