<?xml version="1.0" encoding="utf-8"?>
<!-- Generator: Adobe Illustrator 18.1.1, SVG Export Plug-In . SVG Version: 6.00 Build 0)  -->
<svg version="1.1" id="Layer_1" xmlns="http://www.w3.org/2000/svg" xmlns:xlink="http://www.w3.org/1999/xlink" x="0px" y="0px"
	 width="200px" height="200px" viewBox="0 0 200 200" enable-background="new 0 0 200 200" xml:space="preserve">
<g>
	<rect x="74.9" y="-0.1" fill="#DA8046" width="20.6" height="40.1"/>
	<rect x="107.9" y="-0.1" fill="#DA8046" width="20.6" height="40.1"/>
	<rect x="74.9" y="159.9" fill="#DA8046" width="20.6" height="40.1"/>
	<rect x="107.9" y="159.9" fill="#DA8046" width="20.6" height="40.1"/>
	<g>
		<path fill="#DA8046" d="M160.1,108.6c-4.8-6.2-11.9-10.1-21.3-11.8c7.6-1.5,13.5-5.1,17.8-10.7c4.3-5.6,6.5-12.2,6.5-19.7
			c0-8-2.1-15-6.4-21c-4.2-6-9.3-9.9-15.1-11.8c-5.8-1.9-13.1-2.8-21.9-2.8H54.9v137.1H126c14,0,24.4-3.6,31.1-10.8
			c6.7-7.2,10.1-16.1,10.1-26.7C167.3,122,164.9,114.7,160.1,108.6z M77.7,50.4h41.6c5.3,0,10,1.5,14,4.5c4,3,6,7.6,6,13.9
			c0,5.7-1.7,10.4-5.2,14.1c-3.5,3.7-8.2,5.5-14.2,5.5H77.7V50.4z M137.1,142c-3.8,3.5-9,5.3-15.6,5.3H77.7V108h43.9
			c6.4,0,11.5,1.8,15.4,5.5c3.9,3.7,5.8,8.4,5.8,14.2C142.9,133.7,140.9,138.5,137.1,142z"/>
		<rect x="32.7" y="30.8" fill="#DA8046" width="47.2" height="19"/>
		<rect x="32.7" y="148.9" fill="#DA8046" width="47.2" height="19"/>
	</g>
</g>
</svg>
