<?xml version="1.0" encoding="utf-8"?>
<!-- Generator: Adobe Illustrator 18.1.1, SVG Export Plug-In . SVG Version: 6.00 Build 0)  -->
<svg version="1.1" id="Layer_1" xmlns="http://www.w3.org/2000/svg" xmlns:xlink="http://www.w3.org/1999/xlink" x="0px" y="0px"
	 width="200px" height="200px" viewBox="0 0 200 200" enable-background="new 0 0 200 200" xml:space="preserve">
<g>
	<path fill="#673695" d="M105.1,181.5c-12.2,0-24-2.1-35.1-6.2c-11.1-4.1-21.6-10.5-31.1-19.1l-1.3-1.2l18.8-22.3l1.4,1.2
		c7.4,6.4,14.9,11.3,22.4,14.7c7.4,3.4,16,5.1,25.5,5.1c8,0,14.4-1.7,19-5c4.5-3.2,6.7-7.3,6.7-12.7c0-3-0.4-5.2-1.3-7.1
		c-0.8-1.8-2.4-3.6-4.8-5.4c-2.4-1.8-5.9-3.5-10.2-5.1c-4.5-1.6-10.3-3.2-17.5-4.8c-8.3-1.9-15.8-4.1-22.4-6.6
		c-6.6-2.5-12.3-5.6-16.8-9.2C54,94.3,50.4,89.8,48,84.5c-2.4-5.2-3.6-11.6-3.6-18.9c0-7.4,1.4-13.8,4.1-19.5
		c2.7-5.8,6.6-10.7,11.4-14.8c4.8-4.1,10.6-7.3,17.3-9.5c6.7-2.3,14-3.4,21.9-3.4c11.6,0,22.2,1.7,31.4,5.1
		c9.3,3.4,18.1,8.4,26.2,14.8l1.4,1.1l-16.8,23.6l-1.5-1.1c-6.9-5-13.9-9-20.7-11.6c-6.7-2.6-13.6-4-20.4-4
		c-7.5,0-13.4,1.6-17.5,4.9c-4,3.2-6,7-6,11.6c0,3.1,0.5,5.5,1.4,7.5c0.9,2,2.6,3.8,5,5.4c2.6,1.8,6.3,3.4,10.9,5
		c4.8,1.6,10.9,3.3,18.2,5c8.3,2.1,15.7,4.4,22,7c6.5,2.6,12,5.8,16.3,9.5c4.3,3.8,7.7,8.3,9.9,13.3c2.2,5,3.4,10.9,3.4,17.5
		c0,7.9-1.4,14.7-4.2,20.7c-2.8,6-6.8,11.1-11.9,15.3c-5,4.1-11.1,7.3-18.1,9.4C121.2,180.5,113.4,181.5,105.1,181.5z"/>
	<rect x="86.7" y="0" fill="#673695" width="26.5" height="40.1"/>
	<rect x="86.5" y="159.2" fill="#673695" width="27" height="40.8"/>
</g>
</svg>
