<?xml version="1.0" encoding="utf-8"?>
<!-- Generator: Adobe Illustrator 18.1.1, SVG Export Plug-In . SVG Version: 6.00 Build 0)  -->
<svg version="1.1" id="Layer_1" xmlns="http://www.w3.org/2000/svg" xmlns:xlink="http://www.w3.org/1999/xlink" x="0px" y="0px"
	 width="200px" height="200px" viewBox="0 0 200 200" enable-background="new 0 0 200 200" xml:space="preserve">
<g>
	<path fill="#999999" d="M143.7,162.5c-13,9.8-27.9,14.8-44.4,14.8c-16.5,0-31.4-5-44.4-14.7L29.4,188l-18.8-18.6L37,143.4
		c-8-12.3-12-26.5-12-42c0-16.1,4.4-30.7,13.1-43.5L10.6,30.6L29.4,12l27.2,27c12.7-8.9,27-13.4,42.7-13.4
		c15.8,0,30.2,4.6,42.9,13.7L169.6,12l18.9,18.7l-27.9,27.7c8.6,12.6,12.9,27.1,12.9,43c0,15.2-4,29.2-11.8,41.6l27.7,26.4
		L170.5,188L143.7,162.5z M99.3,50.6c-9,0-17.4,2.2-24.9,6.7c-7.6,4.4-13.6,10.6-18,18.4c-4.4,7.8-6.6,16.5-6.6,25.7
		c0,9.2,2.2,17.8,6.5,25.6c4.3,7.8,10.4,14,18,18.5c7.6,4.5,16,6.8,25,6.8c8.9,0,17.2-2.3,24.9-6.8c7.6-4.5,13.7-10.7,18-18.5
		c4.3-7.8,6.5-16.4,6.5-25.6c0-9.3-2.2-17.9-6.6-25.7c-4.4-7.8-10.4-14-18-18.4C116.6,52.8,108.2,50.6,99.3,50.6z"/>
</g>
</svg>
