<?xml version="1.0" standalone="no"?>
<!DOCTYPE svg PUBLIC "-//W3C//DTD SVG 20010904//EN"
 "http://www.w3.org/TR/2001/REC-SVG-20010904/DTD/svg10.dtd">
<svg version="1.0" xmlns="http://www.w3.org/2000/svg"
 width="1000.000000pt" height="1667.000000pt" viewBox="0 0 1000.000000 1667.000000"
 preserveAspectRatio="xMidYMid meet">

<g transform="translate(0.000000,1667.000000) scale(0.100000,-0.100000)"
fill="#000000" stroke="none">
<path d="M2500 12418 c-1372 -2334 -2495 -4246 -2495 -4250 0 -4 684 -434
1520 -956 836 -521 1958 -1221 2493 -1555 535 -334 977 -607 982 -607 8 0
4972 3092 4993 3110 4 3 -341 598 -766 1321 -425 723 -1549 2634 -2497 4247
-948 1612 -1727 2932 -1730 2932 -3 0 -1128 -1909 -2500 -4242z"/>
<path d="M10 7147 c0 -4 633 -912 1407 -2019 773 -1107 1699 -2431 2056 -2943
358 -511 846 -1210 1085 -1553 239 -342 439 -621 444 -620 10 4 4990 7129
4986 7133 -2 2 -1125 -696 -2496 -1552 l-2492 -1555 -2472 1543 c-1360 848
-2483 1549 -2495 1557 -13 8 -23 12 -23 9z"/>
</g>
</svg>
