<?xml version="1.0" encoding="utf-8"?>
<!-- Generator: Adobe Illustrator 18.1.1, SVG Export Plug-In . SVG Version: 6.00 Build 0)  -->
<svg version="1.1" id="Layer_1" xmlns="http://www.w3.org/2000/svg" xmlns:xlink="http://www.w3.org/1999/xlink" x="0px" y="0px"
	 width="200px" height="200px" viewBox="0 0 200 200" enable-background="new 0 0 200 200" xml:space="preserve">
<g>
	<path fill="#FFCC32" d="M116.8,186.9c-9,0-17.2-1.4-24.7-4.1c-7.5-2.7-14.2-6.6-20.2-11.6c-5.9-5-11-11-15.2-18
		c-4.2-7-7.5-14.7-9.7-23.2H25.1v-20.4h18.5c-0.2-1.6-0.2-3.1-0.2-4.6c0-1.4,0-3,0-4.6V100c0-1.8,0-3.6,0-5.4c0-1.8,0.2-3.6,0.5-5.4
		H25.1V68.8h22.6c2.4-8.2,5.7-15.6,10-22.4c4.2-6.8,9.2-12.6,15-17.5s12.3-8.7,19.6-11.5c7.3-2.8,15.2-4.2,23.6-4.2
		c7.4,0,14,0.8,19.8,2.4c5.8,1.6,11.1,3.8,15.7,6.7c4.6,2.8,8.8,6.2,12.6,10.2c3.8,4,7.2,8.2,10.4,12.7l-22.3,16.6
		c-5.1-7-10.5-12.4-16.1-16.2c-5.6-3.8-12.6-5.6-20.9-5.6c-8.6,0-16.1,2.6-22.4,7.7c-6.3,5.2-11.2,12.3-14.5,21.3h51.6v20.4H73.6
		c-0.2,1.6-0.3,3.3-0.4,5c-0.1,1.8-0.1,3.5-0.1,5.3v0.5c0,1.8,0,3.4,0.1,4.9c0.1,1.5,0.2,3.1,0.4,4.7h56.2V130H77.9
		c3.2,9.4,8.2,16.7,14.9,22.2c6.7,5.4,14.8,8.1,24.2,8.1c4,0,7.6-0.5,10.9-1.6c3.3-1.1,6.4-2.5,9.2-4.5c2.9-1.9,5.7-4.3,8.4-7.1
		c2.7-2.8,5.4-6,8.2-9.7l21.1,15.3c-3.4,5-7,9.6-10.9,13.7c-3.9,4.2-8.2,7.8-13,10.8c-4.7,3-9.9,5.3-15.5,7
		C129.9,186,123.7,186.9,116.8,186.9z"/>
</g>
</svg>
