<?xml version="1.0" encoding="utf-8"?>
<!-- Generator: Adobe Illustrator 18.1.1, SVG Export Plug-In . SVG Version: 6.00 Build 0)  -->
<svg version="1.1" id="Layer_1" xmlns="http://www.w3.org/2000/svg" xmlns:xlink="http://www.w3.org/1999/xlink" x="0px" y="0px"
	 width="200px" height="200px" viewBox="0 0 200 200" enable-background="new 0 0 200 200" xml:space="preserve">
<g>
	<g>
		<path fill="#2BD883" d="M34.9,168.1l19.4-5.9v-43.3H34.9V93.4h19.4V70.8c0-9,1.3-17.2,3.9-24.5S64.6,32.9,69.5,28
			c9.8-10.2,23.6-15.2,41.3-15.2c6.9,0,13,0.7,18.4,2.1c5.4,1.4,10.3,3.3,14.6,5.8c4.3,2.5,8.2,5.4,11.7,8.7c3.4,3.4,6.6,7,9.6,10.9
			L142,58.7c-4.4-5.7-9-10.2-13.6-13.3c-4.7-3.1-10.4-4.7-17.3-4.7c-3.8,0-7.1,0.6-10.1,1.7c-3,1.2-5.6,2.9-7.9,5.2
			c-2.6,2.8-4.7,6.1-6.2,10.1c-1.5,3.9-2.2,8.5-2.2,13.8v21.9H146v25.6H84.8v42h79.9v26.3H34.9V168.1z"/>
	</g>
	<polygon fill="#2BD883" points="84.8,160.9 34.9,160.9 34.9,187.3 	"/>
</g>
</svg>
