<?xml version="1.0" encoding="utf-8"?>
<!-- Generator: Adobe Illustrator 18.1.1, SVG Export Plug-In . SVG Version: 6.00 Build 0)  -->
<svg version="1.1" id="Layer_1" xmlns="http://www.w3.org/2000/svg" xmlns:xlink="http://www.w3.org/1999/xlink" x="0px" y="0px"
	 width="200px" height="200px" viewBox="0 0 200 200" enable-background="new 0 0 200 200" xml:space="preserve">
<g>
	<g>
		<g>
			<polygon fill="#6496C8" points="125.8,178.5 100.6,81.1 75.1,178.5 51.5,178.5 40.9,136.7 36,117.5 28.8,90.1 28.7,89.6 
				23.9,70.7 23.7,70.2 13.3,29.5 40.7,21.5 64,122.6 87.3,29.2 114.6,29.2 137.7,122.6 161,21.5 187.8,29.5 177.4,70.2 177.2,70.8 
				172.5,89.6 172.3,90.2 165.3,117.5 160.4,136.7 149.9,178.5 			"/>
			<path fill="#6496C8" d="M159.9,21.7l-24,104.1L112,29.2H86.2l-24.1,96.7l-24-104.1l-25.5,7.4l10.2,39.8l0.2,0.5l4.7,18.9l0.2,0.5
				l7.2,27.4l4.9,19.2l10.4,41h22.1L98.7,76.2l26,100.3h22.5l10.4-41l4.9-19.2l7-27.4l0.2-0.5l4.7-18.9l0.2-0.5l10.2-39.8
				L159.9,21.7z"/>
		</g>
	</g>
	<polygon fill="#6496C8" points="51.1,70.5 55.3,89.3 4.1,89.3 4.1,69.9 50.9,69.9 	"/>
	<polygon fill="#6496C8" points="195.9,69.9 195.9,89.3 146.4,89.3 150.8,70.5 151,69.9 	"/>
	<polygon fill="#6496C8" points="90.2,116.9 85,136.2 4.1,136.2 4.1,116.9 61.8,116.9 63.9,126.6 66.3,116.9 	"/>
	<polygon fill="#6496C8" points="195.9,116.9 195.9,136.2 116,136.2 111.1,116.9 135.4,116.9 137.7,126.6 139.9,116.9 	"/>
</g>
</svg>
