<svg width="552" height="504" viewBox="0 0 552 504" version="1.1" xmlns="http://www.w3.org/2000/svg" xmlns:xlink="http://www.w3.org/1999/xlink">
<rect width="100%" height="100%" fill="black" rx="30"/>
<g id="Canvas" fill="none">
<g id="xrp-symbol-white">
<path id="Vector" d="M 436.043 0L 510.096 0L 356.029 152.475C 300.258 207.67 209.837 207.67 154.067 152.475L 2.51594e-08 0L 74.0526 0L 191.093 115.832C 226.414 150.788 283.68 150.788 319.002 115.832L 436.043 0Z" transform="translate(20 40)" fill="white"/>
<path id="Vector_2" d="M 74.0527 194.813L 0 194.813L 155.019 41.3955C 210.789 -13.7985 301.21 -13.7985 356.981 41.3955L 512 194.813L 437.947 194.813L 319.953 78.0385C 284.632 43.0821 227.366 43.0821 192.045 78.0385L 74.0527 194.813Z" transform="translate(20 269)" fill="white"/>
</g>
</g>
</svg>
