<?xml version="1.0" encoding="utf-8"?>
<!-- Generator: Adobe Illustrator 18.1.1, SVG Export Plug-In . SVG Version: 6.00 Build 0)  -->
<svg version="1.1" id="Layer_1" xmlns="http://www.w3.org/2000/svg" xmlns:xlink="http://www.w3.org/1999/xlink" x="0px" y="0px"
	 width="200px" height="200px" viewBox="0 0 200 200" enable-background="new 0 0 200 200" xml:space="preserve">
<g>
	<path fill="#346AA9" d="M144.3,188.9c-6.6,0-13.1-1.8-18.9-5.1c-11.6-6.7-18.9-19.2-18.9-32.7c0-7.2,2-14.2,5.9-20.3
		c1.2-2,1.9-4.4,1.9-6.9c0-4.8-2.6-9.3-6.7-11.7c-2-1.2-4.4-1.8-6.7-1.8s-4.7,0.6-6.7,1.8c-2.1,1.2-3.8,3-5,5.1
		c-3.3,6.3-8.3,11.6-14.6,15.2c-5.7,3.3-12.2,5.1-18.9,5.1c-6.6,0-13.1-1.8-18.9-5.1C25.2,125.9,18,113.4,18,100
		c0-13.4,7.2-26,18.9-32.7c5.7-3.3,12.2-5.1,18.9-5.1c6.6,0,13.1,1.8,18.9,5.1c6.2,3.6,11.3,8.9,14.6,15.3c1.2,2.1,2.9,3.9,5,5
		c2,1.2,4.4,1.8,6.7,1.8s4.7-0.6,6.7-1.8c4.2-2.4,6.7-6.9,6.7-11.7c0-2.4-0.7-4.8-1.9-6.9c-3.9-6.1-5.9-13.1-5.9-20.3
		c0-13.4,7.2-25.9,18.9-32.7c5.7-3.3,12.2-5.1,18.9-5.1c6.6,0,13.1,1.8,18.9,5.1c11.6,6.7,18.9,19.2,18.9,32.7
		c0,13.4-7.2,25.9-18.9,32.7c-5.7,3.3-12.3,5.1-18.9,5.1c-0.6,0-1.2,0-1.8,0c-2.3,0-4.7,0.6-6.7,1.8c-4.2,2.4-6.7,6.9-6.7,11.7
		c0,4.8,2.6,9.3,6.7,11.7c2,1.2,4.4,1.8,6.7,1.8c0.5,0,1.1,0,1.7,0c6.6,0,13.2,1.8,18.9,5.1c11.6,6.7,18.9,19.3,18.8,32.8
		c0,13.4-7.2,25.9-18.9,32.7C157.4,187.2,150.9,188.9,144.3,188.9z"/>
	<path fill="#346AA9" d="M162.6,119.3c-6.2-3.6-13.2-5.2-20.2-4.9c-2.5,0-5-0.7-7.2-1.9c-4.5-2.6-7.2-7.4-7.2-12.6s2.8-10,7.2-12.6
		c2.2-1.3,4.7-1.9,7.2-1.9c6.9,0.3,13.9-1.3,20.2-4.9C174,74,181,61.9,181,48.8s-7-25.2-18.4-31.8c-11.3-6.6-25.4-6.6-36.7,0
		s-18.4,18.7-18.4,31.8c0,7.1,2.1,13.9,5.8,19.7c1.3,2.2,2,4.8,2,7.4c0,5.1-2.8,10-7.2,12.6c-2.2,1.3-4.7,1.9-7.2,1.9
		c-2.5,0-5-0.7-7.2-1.9c-2.3-1.3-4.1-3.2-5.4-5.4c-3.2-6.1-8.1-11.3-14.2-14.9c-11.3-6.6-25.4-6.6-36.7,0C26,74.8,19,86.9,19,100
		s7,25.2,18.4,31.8c11.3,6.6,25.4,6.6,36.7,0c6.1-3.6,11-8.8,14.2-14.9c1.3-2.3,3.1-4.1,5.4-5.4c2.2-1.3,4.7-1.9,7.2-1.9
		c2.5,0,5,0.7,7.2,1.9c4.5,2.6,7.2,7.4,7.2,12.6c0,2.6-0.7,5.2-2,7.4c-3.7,5.8-5.8,12.6-5.8,19.7c0,13.1,7,25.2,18.4,31.8
		s25.4,6.6,36.7,0c11.3-6.6,18.4-18.7,18.4-31.8C181,137.9,174,125.8,162.6,119.3z"/>
</g>
</svg>
